<svg xmlns="http://www.w3.org/2000/svg" xmlns:xlink="http://www.w3.org/1999/xlink" width="35px" height="40px" viewBox="0 0 35 39" version="1.1">
<g id="surface1">

<path style=" stroke:none;fill-rule:evenodd;fill:rgb(50.588238%,39.607844%,30.588236%);fill-opacity:1;" d="M 28.96875 3.832031 C 30.183594 4.167969 31.128906 4.867188 31.808594 5.917969 C 31.765625 6.3125 31.566406 6.621094 31.214844 6.847656 C 30.78125 6.578125 30.429688 6.230469 30.152344 5.804688 C 29.519531 5.726562 28.890625 5.648438 28.261719 5.570312 C 27.898438 5.261719 27.507812 5.300781 27.078125 5.6875 C 26.390625 5.589844 25.757812 5.359375 25.1875 4.992188 C 25.046875 5.039062 24.929688 5.117188 24.832031 5.222656 C 24.730469 4.96875 24.847656 4.8125 25.1875 4.757812 C 25.570312 5.039062 25.882812 5 26.132812 4.644531 C 25.5625 4.601562 25.011719 4.484375 24.476562 4.292969 C 24.601562 4.132812 24.757812 4.019531 24.949219 3.945312 C 26.289062 3.832031 27.628906 3.792969 28.96875 3.832031 Z M 28.96875 3.832031 " data-index="1"></path>
<path style=" stroke:none;fill-rule:evenodd;fill:rgb(55.686277%,43.137255%,31.764707%);fill-opacity:1;" d="M 13.125 5.457031 C 13.671875 5.644531 14.222656 5.839844 14.78125 6.035156 C 14.65625 6.167969 14.578125 6.320312 14.542969 6.5 C 14.839844 6.953125 15.234375 7.183594 15.726562 7.195312 C 15.128906 6.890625 15.128906 6.621094 15.726562 6.382812 C 15.910156 6.667969 16.03125 6.980469 16.082031 7.3125 C 16.160156 7.234375 16.238281 7.15625 16.316406 7.082031 C 16.59375 7.507812 16.871094 7.929688 17.144531 8.355469 C 17.371094 8.5 17.566406 8.460938 17.738281 8.242188 C 17.6875 8.96875 17.964844 9.625 18.5625 10.214844 C 18.304688 10.394531 18.304688 10.585938 18.5625 10.792969 C 18.632812 11.332031 18.515625 11.875 18.210938 12.417969 C 17.96875 12.226562 17.695312 12.148438 17.382812 12.1875 C 17.4375 12.488281 17.359375 12.71875 17.144531 12.882812 C 16.726562 12.140625 16.253906 11.441406 15.726562 10.792969 C 15.03125 9.472656 14.246094 8.195312 13.363281 6.964844 C 11.15625 6.847656 8.949219 6.808594 6.738281 6.847656 C 6.503906 10.910156 6.425781 15.011719 6.503906 19.152344 C 5.960938 17.386719 5.605469 15.609375 5.4375 13.8125 C 5.144531 13.617188 4.871094 13.695312 4.613281 14.042969 C 4.660156 14.179688 4.738281 14.296875 4.847656 14.394531 C 4.496094 14.878906 4.257812 15.421875 4.136719 16.019531 C 4.324219 16.265625 4.285156 16.539062 4.019531 16.832031 C 3.941406 18.070312 3.863281 19.304688 3.785156 20.542969 C 3.664062 19.152344 3.625 17.761719 3.664062 16.367188 C 3.863281 13.777344 3.980469 11.144531 4.019531 8.472656 C 4.269531 8.074219 4.46875 7.648438 4.613281 7.195312 C 4.53125 7.117188 4.453125 7.042969 4.375 6.964844 C 5.390625 6.582031 6.414062 6.195312 7.449219 5.804688 C 8.480469 5.597656 9.46875 5.714844 10.40625 6.152344 C 11.195312 5.71875 11.945312 5.71875 12.652344 6.152344 C 13.210938 6.0625 13.371094 5.828125 13.125 5.457031 Z M 13.125 5.457031 " data-index="2"></path>
<path style=" stroke:none;fill-rule:evenodd;fill:rgb(52.156866%,40.784314%,30.980393%);fill-opacity:1;" d="M 6.738281 3.832031 C 9.089844 3.847656 11.453125 3.886719 13.835938 3.945312 C 13.738281 4.320312 13.421875 4.589844 12.886719 4.757812 C 12.257812 4.445312 11.628906 4.367188 10.996094 4.527344 C 10.828125 4.339844 10.628906 4.183594 10.40625 4.0625 C 10.304688 4.414062 9.949219 4.644531 9.339844 4.757812 C 10.589844 4.980469 11.851562 5.214844 13.125 5.457031 C 13.371094 5.828125 13.210938 6.0625 12.652344 6.152344 C 11.945312 5.71875 11.195312 5.71875 10.40625 6.152344 C 9.46875 5.714844 8.480469 5.597656 7.449219 5.804688 C 6.414062 6.195312 5.390625 6.582031 4.375 6.964844 C 4.453125 7.042969 4.53125 7.117188 4.613281 7.195312 C 4.46875 7.648438 4.269531 8.074219 4.019531 8.472656 C 3.980469 11.144531 3.863281 13.777344 3.664062 16.367188 C 3.664062 12.882812 3.664062 9.402344 3.664062 5.917969 C 4.480469 4.9375 5.507812 4.242188 6.738281 3.832031 Z M 6.738281 3.832031 " data-index="3"></path>
<path style=" stroke:none;fill-rule:evenodd;fill:rgb(99.215686%,95.686275%,85.490197%);fill-opacity:1;" d="M 6.738281 6.847656 C 8.949219 6.808594 11.15625 6.847656 13.363281 6.964844 C 14.246094 8.195312 15.03125 9.472656 15.726562 10.792969 C 15.203125 10.996094 14.648438 11.074219 14.070312 11.027344 C 14.109375 11.421875 14.070312 11.808594 13.953125 12.1875 C 13.875 12.03125 13.796875 11.878906 13.714844 11.722656 C 12.898438 12.40625 12.1875 13.179688 11.585938 14.042969 C 11.515625 13.855469 11.398438 13.703125 11.234375 13.582031 C 10.5625 14.351562 9.855469 15.089844 9.105469 15.785156 C 9.183594 15.863281 9.261719 15.941406 9.339844 16.019531 C 8.933594 15.851562 8.539062 15.582031 8.160156 15.207031 C 8.207031 15.445312 8.089844 15.675781 7.804688 15.902344 C 7.636719 15.558594 7.359375 15.40625 6.976562 15.4375 C 6.976562 16.445312 6.976562 17.449219 6.976562 18.457031 C 6.976562 19.382812 6.976562 20.3125 6.976562 21.242188 C 6.976562 24.492188 6.976562 27.742188 6.976562 30.992188 C 8.078125 30.992188 9.183594 30.992188 10.289062 30.992188 C 11.3125 30.992188 12.335938 30.992188 13.363281 30.992188 C 13.28125 31.1875 13.121094 31.261719 12.886719 31.222656 C 10.839844 31.222656 8.789062 31.222656 6.738281 31.222656 C 6.738281 23.097656 6.738281 14.972656 6.738281 6.847656 Z M 6.738281 6.847656 " data-index="4"></path>
<path style=" stroke:none;fill-rule:evenodd;fill:rgb(53.333336%,42.745098%,32.156864%);fill-opacity:1;" d="M 28.96875 3.832031 C 27.628906 3.792969 26.289062 3.832031 24.949219 3.945312 C 24.757812 4.019531 24.601562 4.132812 24.476562 4.292969 C 25.011719 4.484375 25.5625 4.601562 26.132812 4.644531 C 25.882812 5 25.570312 5.039062 25.1875 4.757812 C 24.847656 4.8125 24.730469 4.96875 24.832031 5.222656 C 24.929688 5.117188 25.046875 5.039062 25.1875 4.992188 C 25.757812 5.359375 26.390625 5.589844 27.078125 5.6875 C 27.507812 5.300781 27.898438 5.261719 28.261719 5.570312 C 28.890625 5.648438 29.519531 5.726562 30.152344 5.804688 C 30.429688 6.230469 30.78125 6.578125 31.214844 6.847656 C 31.566406 6.621094 31.765625 6.3125 31.808594 5.917969 C 32.003906 6 32.085938 6.152344 32.042969 6.382812 C 32.042969 10.871094 32.042969 15.359375 32.042969 19.847656 C 31.855469 19.589844 31.738281 19.28125 31.6875 18.917969 C 31.609375 19.382812 31.53125 19.847656 31.453125 20.3125 C 31.242188 17.035156 30.964844 13.824219 30.625 10.679688 C 30.75 10.546875 30.828125 10.394531 30.863281 10.214844 C 30.496094 9.035156 30.222656 7.835938 30.035156 6.617188 C 29.953125 7.855469 29.875 9.09375 29.796875 10.332031 C 29.71875 10.097656 29.640625 9.867188 29.5625 9.632812 C 29.519531 13.234375 29.402344 16.792969 29.207031 20.3125 C 29.285156 15.785156 29.207031 11.296875 28.96875 6.847656 C 26.804688 6.578125 24.675781 6.578125 22.585938 6.847656 C 22.386719 6.925781 22.308594 7.082031 22.347656 7.3125 C 21.824219 7.316406 21.273438 7.394531 20.691406 7.542969 C 20.753906 8.230469 20.832031 9.003906 20.929688 9.867188 C 20.683594 10.144531 20.488281 10.453125 20.335938 10.792969 C 19.792969 10.960938 19.203125 10.960938 18.5625 10.792969 C 18.304688 10.585938 18.304688 10.394531 18.5625 10.214844 C 17.964844 9.625 17.6875 8.96875 17.738281 8.242188 C 17.566406 8.460938 17.371094 8.5 17.144531 8.355469 C 16.871094 7.929688 16.59375 7.507812 16.316406 7.082031 C 16.238281 7.15625 16.160156 7.234375 16.082031 7.3125 C 16.03125 6.980469 15.910156 6.667969 15.726562 6.382812 C 15.128906 6.621094 15.128906 6.890625 15.726562 7.195312 C 15.234375 7.183594 14.839844 6.953125 14.542969 6.5 C 14.578125 6.320312 14.65625 6.167969 14.78125 6.035156 C 14.222656 5.839844 13.671875 5.644531 13.125 5.457031 C 11.851562 5.214844 10.589844 4.980469 9.339844 4.757812 C 9.949219 4.644531 10.304688 4.414062 10.40625 4.0625 C 10.628906 4.183594 10.828125 4.339844 10.996094 4.527344 C 11.628906 4.367188 12.257812 4.445312 12.886719 4.757812 C 13.421875 4.589844 13.738281 4.320312 13.835938 3.945312 C 11.453125 3.886719 9.089844 3.847656 6.738281 3.832031 C 6.839844 3.664062 6.996094 3.546875 7.210938 3.480469 C 9.65625 3.328125 12.101562 3.328125 14.542969 3.480469 C 15.941406 4.738281 17.203125 6.09375 18.328125 7.542969 C 18.902344 6.671875 19.414062 5.746094 19.863281 4.757812 C 20.554688 4.246094 21.304688 3.820312 22.113281 3.480469 C 23.925781 3.328125 25.738281 3.328125 27.550781 3.480469 C 28.074219 3.527344 28.546875 3.640625 28.96875 3.832031 Z M 28.96875 3.832031 " data-index="5"></path>
<path style=" stroke:none;fill-rule:evenodd;fill:rgb(98.823529%,94.509804%,85.09804%);fill-opacity:1;" d="M 22.585938 6.847656 C 24.636719 6.851562 26.6875 6.929688 28.734375 7.082031 C 28.65625 8.902344 28.734375 10.683594 28.96875 12.417969 C 28.96875 17.757812 28.96875 23.097656 28.96875 28.4375 C 28.890625 28.4375 28.8125 28.4375 28.734375 28.4375 C 28.734375 25.109375 28.734375 21.78125 28.734375 18.457031 C 28.773438 16.828125 28.734375 15.203125 28.613281 13.582031 C 28.535156 13.503906 28.457031 13.425781 28.378906 13.347656 C 28.300781 13.65625 28.21875 13.96875 28.140625 14.277344 C 28.0625 14.199219 27.984375 14.121094 27.90625 14.042969 C 27.667969 14.429688 27.433594 14.820312 27.195312 15.207031 C 27.117188 15.050781 27.039062 14.894531 26.960938 14.742188 C 26.34375 16.28125 25.632812 16.203125 24.832031 14.507812 C 24.457031 13.386719 24.101562 12.265625 23.765625 11.144531 C 23.84375 11.066406 23.925781 10.988281 24.003906 10.910156 C 23.585938 10.234375 23.191406 9.460938 22.820312 8.589844 C 23.003906 8.339844 22.964844 8.070312 22.703125 7.777344 C 22.585938 8.625 22.546875 9.476562 22.585938 10.332031 C 22.664062 13.851562 22.582031 17.335938 22.347656 20.777344 C 22.347656 16.289062 22.347656 11.800781 22.347656 7.3125 C 22.308594 7.082031 22.386719 6.925781 22.585938 6.847656 Z M 22.585938 6.847656 " data-index="6"></path>
<path style=" stroke:none;fill-rule:evenodd;fill:rgb(83.92157%,73.725492%,61.960787%);fill-opacity:1;" d="M 22.585938 6.847656 C 24.675781 6.578125 26.804688 6.578125 28.96875 6.847656 C 28.96875 8.707031 28.96875 10.5625 28.96875 12.417969 C 28.734375 10.683594 28.65625 8.902344 28.734375 7.082031 C 26.6875 6.929688 24.636719 6.851562 22.585938 6.847656 Z M 22.585938 6.847656 " data-index="7"></path>
<path style=" stroke:none;fill-rule:evenodd;fill:rgb(100%,97.647059%,89.019608%);fill-opacity:1;" d="M 28.734375 18.457031 C 28.519531 18.289062 28.441406 18.058594 28.496094 17.757812 C 27.835938 17.824219 27.324219 18.132812 26.960938 18.6875 C 26.304688 18.597656 25.671875 18.289062 25.066406 17.757812 C 24.625 17.230469 24.269531 16.648438 24.003906 16.019531 C 24.117188 15.125 23.84375 14.3125 23.175781 13.582031 C 23.015625 12.457031 22.816406 11.375 22.585938 10.332031 C 22.546875 9.476562 22.585938 8.625 22.703125 7.777344 C 22.964844 8.070312 23.003906 8.339844 22.820312 8.589844 C 23.191406 9.460938 23.585938 10.234375 24.003906 10.910156 C 23.925781 10.988281 23.84375 11.066406 23.765625 11.144531 C 24.101562 12.265625 24.457031 13.386719 24.832031 14.507812 C 25.632812 16.203125 26.34375 16.28125 26.960938 14.742188 C 27.039062 14.894531 27.117188 15.050781 27.195312 15.207031 C 27.433594 14.820312 27.667969 14.429688 27.90625 14.042969 C 27.984375 14.121094 28.0625 14.199219 28.140625 14.277344 C 28.21875 13.96875 28.300781 13.65625 28.378906 13.347656 C 28.457031 13.425781 28.535156 13.503906 28.613281 13.582031 C 28.734375 15.203125 28.773438 16.828125 28.734375 18.457031 Z M 28.734375 18.457031 " data-index="8"></path>
<path style=" stroke:none;fill-rule:evenodd;fill:rgb(56.470591%,45.882353%,34.509805%);fill-opacity:1;" d="M 22.347656 7.3125 C 22.347656 11.800781 22.347656 16.289062 22.347656 20.777344 C 21.773438 19.882812 21.144531 19.035156 20.457031 18.222656 C 19.546875 16.59375 18.523438 15.046875 17.382812 13.582031 C 17.367188 13.324219 17.289062 13.089844 17.144531 12.882812 C 17.359375 12.71875 17.4375 12.488281 17.382812 12.1875 C 17.695312 12.148438 17.96875 12.226562 18.210938 12.417969 C 18.515625 11.875 18.632812 11.332031 18.5625 10.792969 C 19.203125 10.960938 19.792969 10.960938 20.335938 10.792969 C 20.488281 10.453125 20.683594 10.144531 20.929688 9.867188 C 20.832031 9.003906 20.753906 8.230469 20.691406 7.542969 C 21.273438 7.394531 21.824219 7.316406 22.347656 7.3125 Z M 22.347656 7.3125 " data-index="9"></path>
<path style=" stroke:none;fill-rule:evenodd;fill:rgb(99.607843%,97.647059%,89.019608%);fill-opacity:1;" d="M 15.726562 10.792969 C 16.253906 11.441406 16.726562 12.140625 17.144531 12.882812 C 17.289062 13.089844 17.367188 13.324219 17.382812 13.582031 C 16.796875 13.476562 16.324219 13.628906 15.960938 14.042969 C 16.085938 14.207031 16.246094 14.320312 16.4375 14.394531 C 16.355469 14.78125 16.277344 15.167969 16.199219 15.554688 C 16.535156 15.871094 16.734375 16.21875 16.789062 16.597656 C 16.476562 16.753906 16.238281 16.984375 16.082031 17.292969 C 16.003906 17.140625 15.921875 16.984375 15.84375 16.832031 C 15.363281 17.042969 14.847656 17.121094 14.308594 17.0625 C 14.308594 17.605469 14.308594 18.144531 14.308594 18.6875 C 14.230469 18.6875 14.148438 18.6875 14.070312 18.6875 C 14.058594 18.429688 13.980469 18.199219 13.835938 17.992188 C 13.859375 17.847656 13.941406 17.730469 14.070312 17.644531 C 13.6875 17.589844 13.453125 17.394531 13.363281 17.0625 C 13.128906 16.757812 12.894531 16.449219 12.652344 16.132812 C 12.34375 16.269531 12.148438 16.503906 12.0625 16.832031 C 11.730469 16.703125 11.414062 16.625 11.113281 16.597656 C 11.109375 17.160156 10.875 17.703125 10.40625 18.222656 C 10.328125 18.070312 10.246094 17.914062 10.167969 17.757812 C 9.933594 17.992188 9.695312 18.222656 9.460938 18.457031 C 8.535156 17.738281 7.707031 17.738281 6.976562 18.457031 C 6.976562 17.449219 6.976562 16.445312 6.976562 15.4375 C 7.359375 15.40625 7.636719 15.558594 7.804688 15.902344 C 8.089844 15.675781 8.207031 15.445312 8.160156 15.207031 C 8.539062 15.582031 8.933594 15.851562 9.339844 16.019531 C 9.261719 15.941406 9.183594 15.863281 9.105469 15.785156 C 9.855469 15.089844 10.5625 14.351562 11.234375 13.582031 C 11.398438 13.703125 11.515625 13.855469 11.585938 14.042969 C 12.1875 13.179688 12.898438 12.40625 13.714844 11.722656 C 13.796875 11.878906 13.875 12.03125 13.953125 12.1875 C 14.070312 11.808594 14.109375 11.421875 14.070312 11.027344 C 14.648438 11.074219 15.203125 10.996094 15.726562 10.792969 Z M 15.726562 10.792969 " data-index="10"></path>
<path style="fill-rule: evenodd; fill: rgb(253, 250, 232); fill-opacity: 1; opacity: 1;" d="M 17.382812 13.582031 C 18.523438 15.046875 19.546875 16.59375 20.457031 18.222656 C 20.097656 17.9375 19.746094 17.9375 19.390625 18.222656 C 19.15625 17.636719 18.957031 17.636719 18.800781 18.222656 C 19.207031 18.707031 19.363281 19.207031 19.273438 19.730469 C 19.171875 20.066406 18.976562 20.335938 18.683594 20.542969 C 18.054688 19.992188 17.382812 19.488281 16.671875 19.035156 C 16.359375 19.070312 16.082031 19.03125 15.84375 18.917969 C 15.726562 19.535156 15.6875 20.152344 15.726562 20.777344 C 15.078125 20.203125 14.605469 19.503906 14.308594 18.6875 C 14.308594 18.144531 14.308594 17.605469 14.308594 17.0625 C 14.847656 17.121094 15.363281 17.042969 15.84375 16.832031 C 15.921875 16.984375 16.003906 17.140625 16.082031 17.292969 C 16.238281 16.984375 16.476562 16.753906 16.789062 16.597656 C 16.734375 16.21875 16.535156 15.871094 16.199219 15.554688 C 16.277344 15.167969 16.355469 14.78125 16.4375 14.394531 C 16.246094 14.320312 16.085938 14.207031 15.960938 14.042969 C 16.324219 13.628906 16.796875 13.476562 17.382812 13.582031 Z M 17.382812 13.582031 " data-index="11"></path>
<path style="fill-rule: evenodd; fill: rgb(254, 252, 239); fill-opacity: 1; opacity: 1;" d="M 22.585938 10.332031 C 22.816406 11.375 23.015625 12.457031 23.175781 13.582031 C 23.84375 14.3125 24.117188 15.125 24.003906 16.019531 C 24.269531 16.648438 24.625 17.230469 25.066406 17.757812 C 25.671875 18.289062 26.304688 18.597656 26.960938 18.6875 C 27.324219 18.132812 27.835938 17.824219 28.496094 17.757812 C 28.441406 18.058594 28.519531 18.289062 28.734375 18.457031 C 28.734375 21.78125 28.734375 25.109375 28.734375 28.4375 C 28.75 28.539062 28.710938 28.617188 28.613281 28.667969 C 28.300781 28.515625 28.0625 28.28125 27.90625 27.972656 C 27.441406 28.546875 26.890625 29.011719 26.25 29.367188 C 25.882812 28.773438 25.371094 28.347656 24.710938 28.089844 C 25.292969 27.589844 25.136719 27.394531 24.238281 27.507812 C 24.277344 27.191406 24.238281 26.878906 24.121094 26.582031 C 24.042969 26.734375 23.964844 26.890625 23.886719 27.042969 C 23.832031 26.710938 23.714844 26.402344 23.53125 26.117188 C 23.3125 25.851562 23.113281 25.851562 22.9375 26.117188 C 22.859375 25.960938 22.78125 25.804688 22.703125 25.652344 C 22.097656 25.917969 21.78125 25.6875 21.757812 24.957031 C 21.679688 25.03125 21.597656 25.109375 21.519531 25.1875 C 20.804688 24.367188 19.976562 23.671875 19.039062 23.097656 C 18.335938 22.300781 17.707031 21.449219 17.144531 20.542969 C 16.5625 20.894531 16.5625 21.28125 17.144531 21.707031 C 16.882812 22.101562 17.039062 22.257812 17.617188 22.167969 C 17.757812 22.78125 17.835938 23.398438 17.855469 24.027344 C 17.027344 23.023438 16.320312 21.941406 15.726562 20.777344 C 15.6875 20.152344 15.726562 19.535156 15.84375 18.917969 C 16.082031 19.03125 16.359375 19.070312 16.671875 19.035156 C 17.382812 19.488281 18.054688 19.992188 18.683594 20.542969 C 18.976562 20.335938 19.171875 20.066406 19.273438 19.730469 C 19.363281 19.207031 19.207031 18.707031 18.800781 18.222656 C 18.957031 17.636719 19.15625 17.636719 19.390625 18.222656 C 19.746094 17.9375 20.097656 17.9375 20.457031 18.222656 C 21.144531 19.035156 21.773438 19.882812 22.347656 20.777344 C 22.582031 17.335938 22.664062 13.851562 22.585938 10.332031 Z M 22.585938 10.332031 " data-index="12"></path>
<path style=" stroke:none;fill-rule:evenodd;fill:rgb(100%,99.215686%,91.764706%);fill-opacity:1;" d="M 13.363281 17.0625 C 13.140625 17.308594 13.0625 17.621094 13.125 17.992188 C 12.910156 18.34375 12.710938 18.730469 12.535156 19.152344 C 12.433594 18.878906 12.277344 18.648438 12.0625 18.457031 C 11.707031 18.804688 11.351562 19.152344 10.996094 19.5 C 11.074219 19.578125 11.152344 19.65625 11.234375 19.730469 C 10.890625 20.257812 10.691406 20.839844 10.640625 21.472656 C 10.355469 21.605469 10.082031 21.761719 9.8125 21.9375 C 10.144531 22.25 10.066406 22.441406 9.578125 22.519531 C 9.703125 22.890625 10.015625 23.242188 10.523438 23.5625 C 10.238281 23.847656 10.238281 24.117188 10.523438 24.375 C 9.957031 24.535156 9.957031 24.765625 10.523438 25.070312 C 10.394531 25.394531 10.316406 25.707031 10.289062 26 C 9.988281 26.070312 9.710938 26.1875 9.460938 26.347656 C 9.300781 25.773438 9.496094 25.347656 10.050781 25.070312 C 9.902344 24.898438 9.785156 24.703125 9.695312 24.492188 C 9.617188 24.570312 9.539062 24.644531 9.460938 24.722656 C 9.28125 24.195312 9.320312 23.695312 9.578125 23.214844 C 9.128906 22.964844 9.050781 22.652344 9.339844 22.285156 C 8.714844 21.777344 8.359375 21.121094 8.277344 20.3125 C 7.96875 20.867188 7.730469 20.867188 7.566406 20.3125 C 7.421875 20.675781 7.226562 20.984375 6.976562 21.242188 C 6.976562 20.3125 6.976562 19.382812 6.976562 18.457031 C 7.707031 17.738281 8.535156 17.738281 9.460938 18.457031 C 9.695312 18.222656 9.933594 17.992188 10.167969 17.757812 C 10.246094 17.914062 10.328125 18.070312 10.40625 18.222656 C 10.875 17.703125 11.109375 17.160156 11.113281 16.597656 C 11.414062 16.625 11.730469 16.703125 12.0625 16.832031 C 12.148438 16.503906 12.34375 16.269531 12.652344 16.132812 C 12.894531 16.449219 13.128906 16.757812 13.363281 17.0625 Z M 13.363281 17.0625 " data-index="13"></path>
<path style=" stroke:none;fill-rule:evenodd;fill:rgb(59.215689%,47.058824%,36.862746%);fill-opacity:1;" d="M 3.664062 5.917969 C 3.664062 9.402344 3.664062 12.882812 3.664062 16.367188 C 3.625 17.761719 3.664062 19.152344 3.785156 20.542969 C 3.863281 19.304688 3.941406 18.070312 4.019531 16.832031 C 4.285156 16.539062 4.324219 16.265625 4.136719 16.019531 C 4.257812 15.421875 4.496094 14.878906 4.847656 14.394531 C 4.738281 14.296875 4.660156 14.179688 4.613281 14.042969 C 4.871094 13.695312 5.144531 13.617188 5.4375 13.8125 C 5.605469 15.609375 5.960938 17.386719 6.503906 19.152344 C 6.503906 20.390625 6.503906 21.628906 6.503906 22.867188 C 6.269531 22.847656 6.070312 22.921875 5.914062 23.097656 C 5.832031 22.945312 5.753906 22.789062 5.675781 22.632812 C 5.347656 23.476562 5.308594 24.289062 5.558594 25.070312 C 5.242188 25.691406 5.042969 26.351562 4.964844 27.042969 C 4.789062 27.308594 4.59375 27.308594 4.375 27.042969 C 4.199219 27.246094 4.078125 27.480469 4.019531 27.742188 C 3.835938 29.070312 3.875 30.382812 4.136719 31.6875 C 4.03125 31.871094 3.871094 31.949219 3.664062 31.917969 C 3.351562 23.253906 3.351562 14.585938 3.664062 5.917969 Z M 3.664062 5.917969 " data-index="14"></path>
<path style=" stroke:none;fill-rule:evenodd;fill:rgb(100%,99.607843%,94.509804%);fill-opacity:1;" d="M 13.125 17.992188 C 13.125 18.765625 13.125 19.539062 13.125 20.3125 C 12.820312 20.625 12.621094 21.011719 12.535156 21.472656 C 12.476562 21.210938 12.355469 20.980469 12.179688 20.777344 C 12.101562 20.816406 12.019531 20.855469 11.941406 20.894531 C 11.890625 22.988281 11.890625 25.078125 11.941406 27.160156 C 11.4375 28.175781 11.359375 29.21875 11.707031 30.292969 C 11.222656 30.519531 10.75 30.75 10.289062 30.992188 C 9.183594 30.992188 8.078125 30.992188 6.976562 30.992188 C 6.976562 27.742188 6.976562 24.492188 6.976562 21.242188 C 7.226562 20.984375 7.421875 20.675781 7.566406 20.3125 C 7.730469 20.867188 7.96875 20.867188 8.277344 20.3125 C 8.359375 21.121094 8.714844 21.777344 9.339844 22.285156 C 9.050781 22.652344 9.128906 22.964844 9.578125 23.214844 C 9.320312 23.695312 9.28125 24.195312 9.460938 24.722656 C 9.539062 24.644531 9.617188 24.570312 9.695312 24.492188 C 9.785156 24.703125 9.902344 24.898438 10.050781 25.070312 C 9.496094 25.347656 9.300781 25.773438 9.460938 26.347656 C 9.710938 26.1875 9.988281 26.070312 10.289062 26 C 10.316406 25.707031 10.394531 25.394531 10.523438 25.070312 C 9.957031 24.765625 9.957031 24.535156 10.523438 24.375 C 10.238281 24.117188 10.238281 23.847656 10.523438 23.5625 C 10.015625 23.242188 9.703125 22.890625 9.578125 22.519531 C 10.066406 22.441406 10.144531 22.25 9.8125 21.9375 C 10.082031 21.761719 10.355469 21.605469 10.640625 21.472656 C 10.691406 20.839844 10.890625 20.257812 11.234375 19.730469 C 11.152344 19.65625 11.074219 19.578125 10.996094 19.5 C 11.351562 19.152344 11.707031 18.804688 12.0625 18.457031 C 12.277344 18.648438 12.433594 18.878906 12.535156 19.152344 C 12.710938 18.730469 12.910156 18.34375 13.125 17.992188 Z M 13.125 17.992188 " data-index="15"></path>
<path style=" stroke:none;fill-rule:evenodd;fill:rgb(56.470591%,46.27451%,34.901962%);fill-opacity:1;" d="M 32.042969 19.847656 C 32.082031 22.171875 32.042969 24.492188 31.925781 26.8125 C 31.679688 27.074219 31.519531 27.382812 31.453125 27.742188 C 31.214844 25.265625 30.980469 22.789062 30.742188 20.3125 C 30.664062 20.390625 30.585938 20.46875 30.507812 20.542969 C 30.429688 18.378906 30.347656 16.210938 30.269531 14.042969 C 29.886719 19.082031 29.570312 24.109375 29.324219 29.132812 C 29.207031 26.195312 29.167969 23.253906 29.207031 20.3125 C 29.402344 16.792969 29.519531 13.234375 29.5625 9.632812 C 29.640625 9.867188 29.71875 10.097656 29.796875 10.332031 C 29.875 9.09375 29.953125 7.855469 30.035156 6.617188 C 30.222656 7.835938 30.496094 9.035156 30.863281 10.214844 C 30.828125 10.394531 30.75 10.546875 30.625 10.679688 C 30.964844 13.824219 31.242188 17.035156 31.453125 20.3125 C 31.53125 19.847656 31.609375 19.382812 31.6875 18.917969 C 31.738281 19.28125 31.855469 19.589844 32.042969 19.847656 Z M 32.042969 19.847656 " data-index="16"></path>
<path style=" stroke:none;fill-rule:evenodd;fill:rgb(99.607843%,99.607843%,96.470588%);fill-opacity:1;" d="M 13.125 20.3125 C 13.046875 22.597656 13.125 24.84375 13.363281 27.042969 C 13.363281 28.359375 13.363281 29.675781 13.363281 30.992188 C 12.335938 30.992188 11.3125 30.992188 10.289062 30.992188 C 10.75 30.75 11.222656 30.519531 11.707031 30.292969 C 11.359375 29.21875 11.4375 28.175781 11.941406 27.160156 C 11.890625 25.078125 11.890625 22.988281 11.941406 20.894531 C 12.019531 20.855469 12.101562 20.816406 12.179688 20.777344 C 12.355469 20.980469 12.476562 21.210938 12.535156 21.472656 C 12.621094 21.011719 12.820312 20.625 13.125 20.3125 Z M 13.125 20.3125 " data-index="17"></path>
<path style="fill-rule: evenodd; fill: rgb(253, 252, 244); fill-opacity: 1; opacity: 1;" d="M 28.734375 28.4375 C 28.8125 28.4375 28.890625 28.4375 28.96875 28.4375 C 28.96875 29.367188 28.96875 30.292969 28.96875 31.222656 C 26.839844 31.222656 24.710938 31.222656 22.585938 31.222656 C 21.972656 30.558594 21.421875 29.863281 20.929688 29.132812 C 19.898438 27.425781 18.871094 25.726562 17.855469 24.027344 C 17.835938 23.398438 17.757812 22.78125 17.617188 22.167969 C 17.039062 22.257812 16.882812 22.101562 17.144531 21.707031 C 16.5625 21.28125 16.5625 20.894531 17.144531 20.542969 C 17.707031 21.449219 18.335938 22.300781 19.039062 23.097656 C 19.976562 23.671875 20.804688 24.367188 21.519531 25.1875 C 21.597656 25.109375 21.679688 25.03125 21.757812 24.957031 C 21.78125 25.6875 22.097656 25.917969 22.703125 25.652344 C 22.78125 25.804688 22.859375 25.960938 22.9375 26.117188 C 23.113281 25.851562 23.3125 25.851562 23.53125 26.117188 C 23.714844 26.402344 23.832031 26.710938 23.886719 27.042969 C 23.964844 26.890625 24.042969 26.734375 24.121094 26.582031 C 24.238281 26.878906 24.277344 27.191406 24.238281 27.507812 C 25.136719 27.394531 25.292969 27.589844 24.710938 28.089844 C 25.371094 28.347656 25.882812 28.773438 26.25 29.367188 C 26.890625 29.011719 27.441406 28.546875 27.90625 27.972656 C 28.0625 28.28125 28.300781 28.515625 28.613281 28.667969 C 28.710938 28.617188 28.75 28.539062 28.734375 28.4375 Z M 28.734375 28.4375 " data-index="18"></path>
<path style="fill-rule: evenodd; fill: rgb(157, 128, 99); fill-opacity: 1; opacity: 1;" d="M 14.070312 18.6875 C 14.148438 18.6875 14.230469 18.6875 14.308594 18.6875 C 14.605469 19.503906 15.078125 20.203125 15.726562 20.777344 C 16.320312 21.941406 17.027344 23.023438 17.855469 24.027344 C 18.871094 25.726562 19.898438 27.425781 20.929688 29.132812 C 20.632812 29.125 20.394531 29.242188 20.21875 29.480469 C 20.671875 29.769531 20.753906 30.117188 20.457031 30.527344 C 19.917969 29.84375 19.207031 29.457031 18.328125 29.367188 C 18.1875 29.082031 18.148438 28.773438 18.210938 28.4375 C 17.933594 28.359375 17.617188 28.359375 17.261719 28.4375 C 17.148438 28.195312 17.1875 27.960938 17.382812 27.742188 C 17.304688 27.507812 17.144531 27.355469 16.910156 27.277344 C 16.253906 27.378906 15.660156 27.613281 15.136719 27.972656 C 14.660156 27.363281 14.699219 26.78125 15.253906 26.230469 C 15.136719 26.117188 15.015625 26 14.898438 25.882812 C 14.078125 26.332031 13.683594 27.027344 13.714844 27.972656 C 13.558594 24.800781 13.558594 21.628906 13.714844 18.457031 C 13.808594 18.585938 13.925781 18.660156 14.070312 18.6875 Z M 14.070312 18.6875 " data-index="19"></path>
<path style=" stroke:none;fill-rule:evenodd;fill:rgb(88.627452%,83.529413%,76.47059%);fill-opacity:1;" d="M 13.363281 17.0625 C 13.453125 17.394531 13.6875 17.589844 14.070312 17.644531 C 13.941406 17.730469 13.859375 17.847656 13.835938 17.992188 C 13.6875 17.964844 13.570312 17.886719 13.480469 17.757812 C 13.363281 20.851562 13.320312 23.949219 13.363281 27.042969 C 13.125 24.84375 13.046875 22.597656 13.125 20.3125 C 13.125 19.539062 13.125 18.765625 13.125 17.992188 C 13.0625 17.621094 13.140625 17.308594 13.363281 17.0625 Z M 13.363281 17.0625 " data-index="20"></path>
<path style=" stroke:none;fill-rule:evenodd;fill:rgb(62.7451%,50.980395%,39.607844%);fill-opacity:1;" d="M 6.503906 22.867188 C 6.582031 25.5 6.503906 28.132812 6.265625 30.757812 C 5.839844 30.847656 5.445312 30.847656 5.085938 30.757812 C 5.195312 30.984375 5.355469 31.179688 5.558594 31.339844 C 4.496094 31.707031 4.417969 32.171875 5.320312 32.730469 C 5.105469 33.125 5.027344 33.550781 5.085938 34.007812 C 7.765625 34.046875 10.445312 34.007812 13.125 33.894531 C 13.691406 33.589844 13.691406 33.355469 13.125 33.195312 C 13.746094 32.601562 13.746094 32.023438 13.125 31.457031 C 14.484375 31.015625 15.351562 31.480469 15.726562 32.847656 C 15.472656 33.445312 15.078125 33.949219 14.542969 34.355469 C 11.234375 34.472656 7.921875 34.511719 4.613281 34.472656 C 4.757812 33.445312 4.441406 32.59375 3.664062 31.917969 C 3.871094 31.949219 4.03125 31.871094 4.136719 31.6875 C 3.875 30.382812 3.835938 29.070312 4.019531 27.742188 C 4.078125 27.480469 4.199219 27.246094 4.375 27.042969 C 4.59375 27.308594 4.789062 27.308594 4.964844 27.042969 C 5.042969 26.351562 5.242188 25.691406 5.558594 25.070312 C 5.308594 24.289062 5.347656 23.476562 5.675781 22.632812 C 5.753906 22.789062 5.832031 22.945312 5.914062 23.097656 C 6.070312 22.921875 6.269531 22.847656 6.503906 22.867188 Z M 6.503906 22.867188 " data-index="21"></path>
<path style=" stroke:none;fill-rule:evenodd;fill:rgb(63.137257%,53.333336%,43.137255%);fill-opacity:1;" d="M 32.042969 6.382812 C 32.320312 15.011719 32.359375 23.679688 32.164062 32.382812 C 31.976562 32.988281 31.621094 33.453125 31.097656 33.777344 C 31.117188 33.546875 31.039062 33.351562 30.863281 33.195312 C 31.019531 33.117188 31.175781 33.042969 31.335938 32.964844 C 30.902344 32.695312 30.546875 32.34375 30.269531 31.917969 C 29.476562 32.507812 29.042969 32.277344 28.96875 31.222656 C 28.96875 30.292969 28.96875 29.367188 28.96875 28.4375 C 28.96875 23.097656 28.96875 17.757812 28.96875 12.417969 C 28.96875 10.5625 28.96875 8.707031 28.96875 6.847656 C 29.207031 11.296875 29.285156 15.785156 29.207031 20.3125 C 29.167969 23.253906 29.207031 26.195312 29.324219 29.132812 C 29.570312 24.109375 29.886719 19.082031 30.269531 14.042969 C 30.347656 16.210938 30.429688 18.378906 30.507812 20.542969 C 30.585938 20.46875 30.664062 20.390625 30.742188 20.3125 C 30.980469 22.789062 31.214844 25.265625 31.453125 27.742188 C 31.519531 27.382812 31.679688 27.074219 31.925781 26.8125 C 32.042969 24.492188 32.082031 22.171875 32.042969 19.847656 C 32.042969 15.359375 32.042969 10.871094 32.042969 6.382812 Z M 32.042969 6.382812 " data-index="22"></path>
<path style=" stroke:none;fill-rule:evenodd;fill:rgb(63.529414%,52.941179%,41.176471%);fill-opacity:1;" d="M 13.835938 17.992188 C 13.980469 18.199219 14.058594 18.429688 14.070312 18.6875 C 13.925781 18.660156 13.808594 18.585938 13.714844 18.457031 C 13.558594 21.628906 13.558594 24.800781 13.714844 27.972656 C 13.683594 27.027344 14.078125 26.332031 14.898438 25.882812 C 15.015625 26 15.136719 26.117188 15.253906 26.230469 C 14.699219 26.78125 14.660156 27.363281 15.136719 27.972656 C 15.660156 27.613281 16.253906 27.378906 16.910156 27.277344 C 17.144531 27.355469 17.304688 27.507812 17.382812 27.742188 C 17.1875 27.960938 17.148438 28.195312 17.261719 28.4375 C 17.617188 28.359375 17.933594 28.359375 18.210938 28.4375 C 18.148438 28.773438 18.1875 29.082031 18.328125 29.367188 C 19.207031 29.457031 19.917969 29.84375 20.457031 30.527344 C 20.753906 30.117188 20.671875 29.769531 20.21875 29.480469 C 20.394531 29.242188 20.632812 29.125 20.929688 29.132812 C 21.421875 29.863281 21.972656 30.558594 22.585938 31.222656 C 22.285156 31.292969 22.011719 31.292969 21.757812 31.222656 C 21.636719 31.570312 21.753906 31.839844 22.113281 32.035156 C 21.992188 32.074219 21.875 32.113281 21.757812 32.152344 C 20.710938 32.195312 19.726562 32 18.800781 31.570312 C 19.015625 31.964844 19.09375 32.390625 19.039062 32.847656 C 18.628906 32.28125 18.273438 31.664062 17.972656 30.992188 C 17.796875 30.742188 17.5625 30.585938 17.261719 30.527344 C 16.6875 31.269531 16.175781 32.042969 15.726562 32.847656 C 15.351562 31.480469 14.484375 31.015625 13.125 31.457031 C 12.96875 31.457031 12.886719 31.378906 12.886719 31.222656 C 13.121094 31.261719 13.28125 31.1875 13.363281 30.992188 C 13.363281 29.675781 13.363281 28.359375 13.363281 27.042969 C 13.320312 23.949219 13.363281 20.851562 13.480469 17.757812 C 13.570312 17.886719 13.6875 17.964844 13.835938 17.992188 Z M 13.835938 17.992188 " data-index="23"></path>
<path style="fill-rule: evenodd; fill: rgb(170, 137, 104); fill-opacity: 1; opacity: 1;" d="M 22.585938 31.222656 C 24.710938 31.222656 26.839844 31.222656 28.96875 31.222656 C 29.042969 32.277344 29.476562 32.507812 30.269531 31.917969 C 30.546875 32.34375 30.902344 32.695312 31.335938 32.964844 C 31.175781 33.042969 31.019531 33.117188 30.863281 33.195312 C 31.039062 33.351562 31.117188 33.546875 31.097656 33.777344 C 30.878906 33.964844 30.640625 34.160156 30.386719 34.355469 C 27 34.511719 23.609375 34.511719 20.21875 34.355469 C 19.738281 33.910156 19.34375 33.40625 19.039062 32.847656 C 19.09375 32.390625 19.015625 31.964844 18.800781 31.570312 C 19.726562 32 20.710938 32.195312 21.757812 32.152344 C 21.875 32.113281 21.992188 32.074219 22.113281 32.035156 C 21.753906 31.839844 21.636719 31.570312 21.757812 31.222656 C 22.011719 31.292969 22.285156 31.292969 22.585938 31.222656 Z M 22.585938 31.222656 " data-index="24"></path>
<path style=" stroke:none;fill-rule:evenodd;fill:rgb(68.235296%,54.901963%,42.745098%);fill-opacity:1;" d="M 6.738281 6.847656 C 6.738281 14.972656 6.738281 23.097656 6.738281 31.222656 C 8.789062 31.222656 10.839844 31.222656 12.886719 31.222656 C 12.886719 31.378906 12.96875 31.457031 13.125 31.457031 C 13.746094 32.023438 13.746094 32.601562 13.125 33.195312 C 13.691406 33.355469 13.691406 33.589844 13.125 33.894531 C 10.445312 34.007812 7.765625 34.046875 5.085938 34.007812 C 5.027344 33.550781 5.105469 33.125 5.320312 32.730469 C 4.417969 32.171875 4.496094 31.707031 5.558594 31.339844 C 5.355469 31.179688 5.195312 30.984375 5.085938 30.757812 C 5.445312 30.847656 5.839844 30.847656 6.265625 30.757812 C 6.503906 28.132812 6.582031 25.5 6.503906 22.867188 C 6.503906 21.628906 6.503906 20.390625 6.503906 19.152344 C 6.425781 15.011719 6.503906 10.910156 6.738281 6.847656 Z M 6.738281 6.847656 " data-index="25"></path>
</g>
</svg>
