<svg xmlns="http://www.w3.org/2000/svg" xmlns:xlink="http://www.w3.org/1999/xlink" width="30px" height="50px" viewBox="0 0 30 50" version="1.1">
<g id="surface1">

<path style=" stroke:none;fill-rule:evenodd;fill:rgb(39.607844%,28.627452%,18.82353%);fill-opacity:1;" d="M 20.625 4.125 C 20.78125 4.65625 21.113281 5.074219 21.625 5.375 C 21.949219 5.910156 21.949219 6.410156 21.625 6.875 C 20.59375 7.375 20.007812 8.210938 19.875 9.375 C 19.414062 9.445312 19.078125 9.277344 18.875 8.875 C 19.433594 8.40625 19.765625 7.820312 19.875 7.125 C 20.203125 6.695312 20.203125 6.234375 19.875 5.75 C 16.5 5.542969 13.164062 5.585938 9.875 5.875 C 9.625 5.875 9.375 5.875 9.125 5.875 C 9.035156 5.308594 9.203125 4.851562 9.625 4.5 C 12.972656 4.460938 16.390625 4.417969 19.875 4.375 C 20.21875 4.980469 20.46875 4.898438 20.625 4.125 Z M 20.625 4.125 " data-index="1"></path>
<path style=" stroke:none;fill-rule:evenodd;fill:rgb(77.64706%,60.392159%,41.176471%);fill-opacity:1;" d="M 19.875 7.125 C 19.917969 6.792969 19.835938 6.503906 19.625 6.25 C 16.375 6.125 13.125 6.082031 9.875 6.125 C 9.875 6.042969 9.875 5.957031 9.875 5.875 C 13.164062 5.585938 16.5 5.542969 19.875 5.75 C 20.203125 6.234375 20.203125 6.695312 19.875 7.125 Z M 19.875 7.125 " data-index="2"></path>
<path style=" stroke:none;fill-rule:evenodd;fill:rgb(36.078432%,27.843139%,20.784314%);fill-opacity:1;" d="M 20.625 4.125 C 20.46875 4.898438 20.21875 4.980469 19.875 4.375 C 16.390625 4.417969 12.972656 4.460938 9.625 4.5 C 9.203125 4.851562 9.035156 5.308594 9.125 5.875 C 8.960938 6.359375 8.878906 6.859375 8.875 7.375 C 8.625 7.375 8.375 7.375 8.125 7.375 C 8.125 7.042969 8.125 6.707031 8.125 6.375 C 8.664062 5.632812 8.914062 4.796875 8.875 3.875 C 12.835938 3.792969 16.753906 3.875 20.625 4.125 Z M 20.625 4.125 " data-index="3"></path>
<path style="fill-rule: evenodd; fill: rgb(254, 243, 213); fill-opacity: 1; opacity: 1;" d="M 19.625 7.125 C 19.40625 7.722656 19.03125 8.222656 18.5 8.625 C 18.375 9.035156 18.335938 9.449219 18.375 9.875 C 18.699219 9.816406 18.949219 9.898438 19.125 10.125 C 18.632812 10.445312 18.132812 10.777344 17.625 11.125 C 17.375 11.792969 17 12.375 16.5 12.875 C 16.417969 12.792969 16.332031 12.707031 16.25 12.625 C 15.953125 12.859375 15.617188 13.023438 15.25 13.125 C 14.632812 12.894531 14.050781 12.894531 13.5 13.125 C 13.421875 12.675781 13.253906 12.589844 13 12.875 C 12.8125 12.71875 12.605469 12.59375 12.375 12.5 C 12.851562 12.292969 12.933594 12 12.625 11.625 C 12.324219 11.710938 12.324219 11.835938 12.625 12 C 12.375 12.167969 12.125 12.167969 11.875 12 C 11.957031 11.917969 12.042969 11.832031 12.125 11.75 C 11.941406 11.398438 11.816406 11.023438 11.75 10.625 C 11.382812 10.53125 11.007812 10.65625 10.625 11 C 10.707031 11.082031 10.792969 11.167969 10.875 11.25 C 10.574219 11.476562 10.367188 11.765625 10.25 12.125 C 9.898438 11.832031 9.605469 11.917969 9.375 12.375 C 9.101562 12.152344 9.101562 11.902344 9.375 11.625 C 9.707031 11.292969 10.042969 10.957031 10.375 10.625 C 9.976562 10.390625 9.558594 10.390625 9.125 10.625 C 9.5625 10.253906 10.0625 10.003906 10.625 9.875 C 10.9375 9.855469 11.144531 9.6875 11.25 9.375 C 11.441406 8.984375 11.398438 8.648438 11.125 8.375 C 11.125 8.292969 11.125 8.207031 11.125 8.125 C 10.914062 7.65625 10.832031 7.15625 10.875 6.625 C 13.707031 6.414062 16.539062 6.371094 19.375 6.5 C 19.5625 6.667969 19.644531 6.875 19.625 7.125 Z M 19.625 7.125 " data-index="4"></path>
<path style=" stroke:none;fill-rule:evenodd;fill:rgb(94.509804%,85.09804%,70.588237%);fill-opacity:1;" d="M 9.875 6.125 C 13.125 6.082031 16.375 6.125 19.625 6.25 C 19.835938 6.503906 19.917969 6.792969 19.875 7.125 C 19.792969 7.125 19.707031 7.125 19.625 7.125 C 19.644531 6.875 19.5625 6.667969 19.375 6.5 C 16.539062 6.371094 13.707031 6.414062 10.875 6.625 C 10.832031 7.15625 10.914062 7.65625 11.125 8.125 C 10.105469 7.851562 9.691406 7.1875 9.875 6.125 Z M 9.875 6.125 " data-index="5"></path>
<path style=" stroke:none;fill-rule:evenodd;fill:rgb(49.019608%,40.784314%,31.764707%);fill-opacity:1;" d="M 9.125 5.875 C 9.375 5.875 9.625 5.875 9.875 5.875 C 9.875 5.957031 9.875 6.042969 9.875 6.125 C 9.691406 7.1875 10.105469 7.851562 11.125 8.125 C 11.125 8.207031 11.125 8.292969 11.125 8.375 C 10.300781 8.453125 9.714844 8.871094 9.375 9.625 C 9.761719 9.863281 10.179688 9.945312 10.625 9.875 C 10.0625 10.003906 9.5625 10.253906 9.125 10.625 C 8.058594 11.195312 7.058594 11.859375 6.125 12.625 C 6.125 12.457031 6.042969 12.375 5.875 12.375 C 6.117188 11.132812 6.78125 10.464844 7.875 10.375 C 7.65625 10.1875 7.40625 10.0625 7.125 10 C 7.792969 9.441406 7.667969 9.066406 6.75 8.875 C 6.582031 9.0625 6.375 9.144531 6.125 9.125 C 6.546875 8.769531 7.003906 8.4375 7.5 8.125 C 7.675781 7.5 7.882812 6.914062 8.125 6.375 C 8.125 6.707031 8.125 7.042969 8.125 7.375 C 8.375 7.375 8.625 7.375 8.875 7.375 C 8.878906 6.859375 8.960938 6.359375 9.125 5.875 Z M 9.125 5.875 " data-index="6"></path>
<path style=" stroke:none;fill-rule:evenodd;fill:rgb(34.901962%,25.098041%,18.039216%);fill-opacity:1;" d="M 11.125 8.375 C 11.398438 8.648438 11.441406 8.984375 11.25 9.375 C 11.144531 9.6875 10.9375 9.855469 10.625 9.875 C 10.179688 9.945312 9.761719 9.863281 9.375 9.625 C 9.714844 8.871094 10.300781 8.453125 11.125 8.375 Z M 11.125 8.375 " data-index="7"></path>
<path style="fill-rule: evenodd; fill: rgb(254, 245, 220); fill-opacity: 1; opacity: 1;" d="M 19.125 10.125 C 21 10.414062 22.5 11.328125 23.625 12.875 C 23.859375 16.617188 23.941406 20.367188 23.875 24.125 C 23.792969 24.125 23.707031 24.125 23.625 24.125 C 23.625 21.792969 23.625 19.457031 23.625 17.125 C 23.667969 16.371094 23.625 15.621094 23.5 14.875 C 23.417969 15.042969 23.332031 15.207031 23.25 15.375 C 23.078125 14.859375 22.785156 14.445312 22.375 14.125 C 21.929688 14.632812 21.515625 15.175781 21.125 15.75 C 21.460938 16.160156 21.421875 16.535156 21 16.875 C 20.75 16.542969 20.5 16.542969 20.25 16.875 C 20.171875 16.671875 20.046875 16.507812 19.875 16.375 C 19.335938 16.460938 18.753906 16.460938 18.125 16.375 C 18.167969 17.199219 18 17.28125 17.625 16.625 C 17.425781 17.019531 17.300781 17.4375 17.25 17.875 C 16.492188 16.914062 16.074219 16.996094 16 18.125 C 14.597656 17.824219 13.222656 17.324219 11.875 16.625 C 11.914062 16.886719 11.871094 17.136719 11.75 17.375 C 11.179688 17.617188 10.679688 17.953125 10.25 18.375 C 9.625 17.882812 9.375 17.300781 9.5 16.625 C 9.246094 16.835938 8.957031 16.917969 8.625 16.875 C 7.9375 15.378906 7.101562 14.128906 6.125 13.125 C 6.125 13.042969 6.125 12.957031 6.125 12.875 C 6.125 12.792969 6.125 12.707031 6.125 12.625 C 7.058594 11.859375 8.058594 11.195312 9.125 10.625 C 9.558594 10.390625 9.976562 10.390625 10.375 10.625 C 10.042969 10.957031 9.707031 11.292969 9.375 11.625 C 9.101562 11.902344 9.101562 12.152344 9.375 12.375 C 9.605469 11.917969 9.898438 11.832031 10.25 12.125 C 10.367188 11.765625 10.574219 11.476562 10.875 11.25 C 10.792969 11.167969 10.707031 11.082031 10.625 11 C 11.007812 10.65625 11.382812 10.53125 11.75 10.625 C 11.816406 11.023438 11.941406 11.398438 12.125 11.75 C 12.042969 11.832031 11.957031 11.917969 11.875 12 C 12.125 12.167969 12.375 12.167969 12.625 12 C 12.324219 11.835938 12.324219 11.710938 12.625 11.625 C 12.933594 12 12.851562 12.292969 12.375 12.5 C 12.605469 12.59375 12.8125 12.71875 13 12.875 C 13.253906 12.589844 13.421875 12.675781 13.5 13.125 C 14.050781 12.894531 14.632812 12.894531 15.25 13.125 C 15.617188 13.023438 15.953125 12.859375 16.25 12.625 C 16.332031 12.707031 16.417969 12.792969 16.5 12.875 C 17 12.375 17.375 11.792969 17.625 11.125 C 18.132812 10.777344 18.632812 10.445312 19.125 10.125 Z M 19.125 10.125 " data-index="8"></path>
<path style="fill-rule: evenodd; fill: rgb(120, 93, 66); fill-opacity: 1; opacity: 1;" d="M 21.625 6.875 C 21.636719 7.578125 21.804688 8.246094 22.125 8.875 C 23.09375 10.042969 24.300781 10.792969 25.75 11.125 C 25.832031 12.625 25.917969 14.125 26 15.625 C 26.09375 15.976562 26.300781 16.226562 26.625 16.375 C 26.863281 16.761719 26.945312 17.179688 26.875 17.625 C 26.515625 17.71875 26.308594 17.96875 26.25 18.375 C 26.003906 17.816406 25.878906 17.230469 25.875 16.625 C 25.625 16.625 25.375 16.625 25.125 16.625 C 25.164062 15.953125 25.125 15.285156 25 14.625 C 24.917969 14.875 24.832031 15.125 24.75 15.375 C 24.691406 15.066406 24.566406 14.816406 24.375 14.625 C 24.417969 14.378906 24.335938 14.210938 24.125 14.125 C 24.148438 13.613281 23.984375 13.195312 23.625 12.875 C 22.5 11.328125 21 10.414062 19.125 10.125 C 18.949219 9.898438 18.699219 9.816406 18.375 9.875 C 18.335938 9.449219 18.375 9.035156 18.5 8.625 C 19.03125 8.222656 19.40625 7.722656 19.625 7.125 C 19.707031 7.125 19.792969 7.125 19.875 7.125 C 19.765625 7.820312 19.433594 8.40625 18.875 8.875 C 19.078125 9.277344 19.414062 9.445312 19.875 9.375 C 20.007812 8.210938 20.59375 7.375 21.625 6.875 Z M 21.625 6.875 " data-index="9"></path>
<path style=" stroke:none;fill-rule:evenodd;fill:rgb(41.960785%,34.117648%,26.666668%);fill-opacity:1;" d="M 5.875 12.375 C 5.464844 12.539062 5.050781 12.707031 4.625 12.875 C 4.457031 12.597656 4.289062 12.347656 4.125 12.125 C 4.617188 11.507812 5.15625 10.925781 5.75 10.375 C 5.800781 9.90625 5.925781 9.488281 6.125 9.125 C 6.375 9.144531 6.582031 9.0625 6.75 8.875 C 7.667969 9.066406 7.792969 9.441406 7.125 10 C 7.40625 10.0625 7.65625 10.1875 7.875 10.375 C 6.78125 10.464844 6.117188 11.132812 5.875 12.375 Z M 5.875 12.375 " data-index="10"></path>
<path style="fill-rule: evenodd; fill: rgb(252, 246, 224); fill-opacity: 1; opacity: 1;" d="M 6.125 13.125 C 7.101562 14.128906 7.9375 15.378906 8.625 16.875 C 8.957031 16.917969 9.246094 16.835938 9.5 16.625 C 9.375 17.300781 9.625 17.882812 10.25 18.375 C 10.679688 17.953125 11.179688 17.617188 11.75 17.375 C 11.871094 17.136719 11.914062 16.886719 11.875 16.625 C 13.222656 17.324219 14.597656 17.824219 16 18.125 C 16.074219 16.996094 16.492188 16.914062 17.25 17.875 C 17.300781 17.4375 17.425781 17.019531 17.625 16.625 C 18 17.28125 18.167969 17.199219 18.125 16.375 C 18.753906 16.460938 19.335938 16.460938 19.875 16.375 C 20.046875 16.507812 20.171875 16.671875 20.25 16.875 C 20.5 16.542969 20.75 16.542969 21 16.875 C 21.421875 16.535156 21.460938 16.160156 21.125 15.75 C 21.515625 15.175781 21.929688 14.632812 22.375 14.125 C 22.785156 14.445312 23.078125 14.859375 23.25 15.375 C 23.332031 15.207031 23.417969 15.042969 23.5 14.875 C 23.625 15.621094 23.667969 16.371094 23.625 17.125 C 23.324219 17.308594 22.988281 17.390625 22.625 17.375 C 22.664062 17.71875 22.621094 18.050781 22.5 18.375 C 22.332031 18.707031 22.167969 18.707031 22 18.375 C 21.882812 18.734375 21.675781 19.023438 21.375 19.25 C 21.949219 19.539062 21.867188 19.789062 21.125 20 C 21.28125 20.6875 21.03125 21.273438 20.375 21.75 C 20.457031 21.832031 20.542969 21.917969 20.625 22 C 20.246094 22.210938 19.871094 22.421875 19.5 22.625 C 19.308594 22.589844 19.140625 22.503906 19 22.375 C 18.839844 22.660156 18.628906 22.910156 18.375 23.125 C 18.425781 23.273438 18.511719 23.398438 18.625 23.5 C 18.003906 23.542969 17.460938 23.335938 17 22.875 C 16.621094 23.421875 16.121094 23.839844 15.5 24.125 C 14.757812 24.046875 14.007812 23.964844 13.25 23.875 C 12.796875 24.359375 12.296875 24.527344 11.75 24.375 C 11.507812 23.78125 11.339844 23.863281 11.25 24.625 C 11.082031 24.292969 10.917969 24.292969 10.75 24.625 C 10.453125 24.117188 10.078125 24.035156 9.625 24.375 C 9.277344 23.730469 9.070312 23.8125 9 24.625 C 8.828125 24.296875 8.617188 24.085938 8.375 24 C 8.476562 23.761719 8.644531 23.597656 8.875 23.5 C 8.425781 23.421875 8.339844 23.253906 8.625 23 C 8.375 22.917969 8.125 22.832031 7.875 22.75 C 7.957031 22.667969 8.042969 22.582031 8.125 22.5 C 7.867188 21.484375 7.535156 20.484375 7.125 19.5 C 7.257812 19.117188 7.34375 18.742188 7.375 18.375 C 7.011719 17.832031 6.722656 17.25 6.5 16.625 C 6.417969 16.957031 6.332031 17.292969 6.25 17.625 C 6.167969 17.457031 6.082031 17.292969 6 17.125 C 5.875 19.375 5.832031 21.625 5.875 23.875 C 5.742188 29.957031 5.65625 36.039062 5.625 42.125 C 5.382812 41.683594 5.300781 41.183594 5.375 40.625 C 5.375 38.875 5.375 37.125 5.375 35.375 C 5.332031 28.625 5.375 21.875 5.5 15.125 C 5.523438 14.371094 5.734375 13.703125 6.125 13.125 Z M 6.125 13.125 " data-index="11"></path>
<path style="fill-rule: evenodd; fill: rgb(255, 252, 234); fill-opacity: 1; opacity: 1;" d="M 23.625 17.125 C 23.625 19.457031 23.625 21.792969 23.625 24.125 C 23.464844 23.269531 23.171875 22.433594 22.75 21.625 C 22.394531 21.863281 22.019531 22.074219 21.625 22.25 C 21.707031 22.332031 21.792969 22.417969 21.875 22.5 C 21.457031 23.429688 21.039062 24.34375 20.625 25.25 C 20.308594 25.328125 20.015625 25.453125 19.75 25.625 C 19.226562 25.4375 18.726562 25.355469 18.25 25.375 C 17.011719 26.089844 15.761719 26.757812 14.5 27.375 C 14.332031 26.707031 14.167969 26.707031 14 27.375 C 13.78125 26.871094 13.449219 26.871094 13 27.375 C 12.898438 27.261719 12.773438 27.175781 12.625 27.125 C 12.046875 27.832031 11.339844 28.582031 10.5 29.375 C 10.421875 29.171875 10.296875 29.007812 10.125 28.875 C 10.042969 29.042969 9.957031 29.207031 9.875 29.375 C 9.558594 28.671875 9.058594 28.132812 8.375 27.75 C 8.621094 27.191406 8.457031 26.734375 7.875 26.375 C 7.925781 26.226562 8.011719 26.101562 8.125 26 C 7.59375 24.800781 7.136719 23.675781 6.75 22.625 C 6.523438 23.109375 6.234375 23.523438 5.875 23.875 C 5.832031 21.625 5.875 19.375 6 17.125 C 6.082031 17.292969 6.167969 17.457031 6.25 17.625 C 6.332031 17.292969 6.417969 16.957031 6.5 16.625 C 6.722656 17.25 7.011719 17.832031 7.375 18.375 C 7.34375 18.742188 7.257812 19.117188 7.125 19.5 C 7.535156 20.484375 7.867188 21.484375 8.125 22.5 C 8.042969 22.582031 7.957031 22.667969 7.875 22.75 C 8.125 22.832031 8.375 22.917969 8.625 23 C 8.339844 23.253906 8.425781 23.421875 8.875 23.5 C 8.644531 23.597656 8.476562 23.761719 8.375 24 C 8.617188 24.085938 8.828125 24.296875 9 24.625 C 9.070312 23.8125 9.277344 23.730469 9.625 24.375 C 10.078125 24.035156 10.453125 24.117188 10.75 24.625 C 10.917969 24.292969 11.082031 24.292969 11.25 24.625 C 11.339844 23.863281 11.507812 23.78125 11.75 24.375 C 12.296875 24.527344 12.796875 24.359375 13.25 23.875 C 14.007812 23.964844 14.757812 24.046875 15.5 24.125 C 16.121094 23.839844 16.621094 23.421875 17 22.875 C 17.460938 23.335938 18.003906 23.542969 18.625 23.5 C 18.511719 23.398438 18.425781 23.273438 18.375 23.125 C 18.628906 22.910156 18.839844 22.660156 19 22.375 C 19.140625 22.503906 19.308594 22.589844 19.5 22.625 C 19.871094 22.421875 20.246094 22.210938 20.625 22 C 20.542969 21.917969 20.457031 21.832031 20.375 21.75 C 21.03125 21.273438 21.28125 20.6875 21.125 20 C 21.867188 19.789062 21.949219 19.539062 21.375 19.25 C 21.675781 19.023438 21.882812 18.734375 22 18.375 C 22.167969 18.707031 22.332031 18.707031 22.5 18.375 C 22.621094 18.050781 22.664062 17.71875 22.625 17.375 C 22.988281 17.390625 23.324219 17.308594 23.625 17.125 Z M 23.625 17.125 " data-index="12"></path>
<path style="fill-rule: evenodd; fill: rgb(254, 254, 240); fill-opacity: 1; opacity: 1;" d="M 23.625 24.125 C 23.707031 24.125 23.792969 24.125 23.875 24.125 C 24.023438 29.625 24.105469 35.125 24.125 40.625 C 24.105469 41.664062 23.605469 42.328125 22.625 42.625 C 17.539062 42.667969 12.457031 42.625 7.375 42.5 C 6.785156 42.390625 6.199219 42.265625 5.625 42.125 C 5.65625 36.039062 5.742188 29.957031 5.875 23.875 C 6.234375 23.523438 6.523438 23.109375 6.75 22.625 C 7.136719 23.675781 7.59375 24.800781 8.125 26 C 8.011719 26.101562 7.925781 26.226562 7.875 26.375 C 8.457031 26.734375 8.621094 27.191406 8.375 27.75 C 9.058594 28.132812 9.558594 28.671875 9.875 29.375 C 9.957031 29.207031 10.042969 29.042969 10.125 28.875 C 10.296875 29.007812 10.421875 29.171875 10.5 29.375 C 11.339844 28.582031 12.046875 27.832031 12.625 27.125 C 12.773438 27.175781 12.898438 27.261719 13 27.375 C 13.449219 26.871094 13.78125 26.871094 14 27.375 C 14.167969 26.707031 14.332031 26.707031 14.5 27.375 C 15.761719 26.757812 17.011719 26.089844 18.25 25.375 C 18.726562 25.355469 19.226562 25.4375 19.75 25.625 C 20.015625 25.453125 20.308594 25.328125 20.625 25.25 C 21.039062 24.34375 21.457031 23.429688 21.875 22.5 C 21.792969 22.417969 21.707031 22.332031 21.625 22.25 C 22.019531 22.074219 22.394531 21.863281 22.75 21.625 C 23.171875 22.433594 23.464844 23.269531 23.625 24.125 Z M 23.625 24.125 " data-index="13"></path>
<path style="fill-rule: evenodd; fill: rgb(123, 93, 67); fill-opacity: 1; opacity: 1;" d="M 4.125 12.125 C 4.289062 12.347656 4.457031 12.597656 4.625 12.875 C 5.050781 12.707031 5.464844 12.539062 5.875 12.375 C 6.042969 12.375 6.125 12.457031 6.125 12.625 C 6.125 12.707031 6.125 12.792969 6.125 12.875 C 5.71875 13.007812 5.304688 13.09375 4.875 13.125 C 4.667969 14.363281 4.585938 15.613281 4.625 16.875 C 4.375 16.875 4.125 16.875 3.875 16.875 C 3.875 20.207031 3.875 23.542969 3.875 26.875 C 3.738281 29.171875 3.90625 31.421875 4.375 33.625 C 4.125 33.625 3.875 33.625 3.625 33.625 C 3.375 33.625 3.125 33.625 2.875 33.625 C 2.792969 28.121094 2.875 22.621094 3.125 17.125 C 3.273438 17.074219 3.398438 16.988281 3.5 16.875 C 3.558594 15.234375 3.765625 13.652344 4.125 12.125 Z M 4.125 12.125 " data-index="14"></path>
<path style=" stroke:none;fill-rule:evenodd;fill:rgb(100%,99.607843%,95.686275%);fill-opacity:1;" d="M 22.625 25.125 C 23.269531 27.027344 23.4375 28.941406 23.125 30.875 C 23.621094 32.335938 23.746094 33.835938 23.5 35.375 C 23.417969 34.875 23.332031 34.375 23.25 33.875 C 23.152344 35.21875 23.109375 36.507812 23.125 37.75 C 23.679688 38.691406 23.929688 39.730469 23.875 40.875 C 23.253906 40.960938 22.710938 41.210938 22.25 41.625 C 21.582031 41.5625 21.042969 41.269531 20.625 40.75 C 21.191406 39.683594 21.605469 38.644531 21.875 37.625 C 21.566406 37.429688 21.316406 37.179688 21.125 36.875 C 20.9375 36.308594 20.9375 35.683594 21.125 35 C 20.980469 34.699219 20.816406 34.40625 20.625 34.125 C 20.273438 34.453125 19.855469 34.660156 19.375 34.75 C 19.164062 35.003906 19.082031 35.292969 19.125 35.625 C 19.386719 35.585938 19.636719 35.628906 19.875 35.75 C 19.660156 36.035156 19.410156 36.367188 19.125 36.75 C 19.292969 36.832031 19.457031 36.917969 19.625 37 C 18.980469 37.3125 18.3125 37.394531 17.625 37.25 C 17.292969 37 17.292969 36.75 17.625 36.5 C 16.210938 36.035156 15.753906 35.078125 16.25 33.625 C 16.332031 33.707031 16.417969 33.792969 16.5 33.875 C 16.847656 32.933594 17.097656 32.933594 17.25 33.875 C 17.371094 33.636719 17.414062 33.386719 17.375 33.125 C 17.636719 33.085938 17.886719 33.128906 18.125 33.25 C 17.054688 34.363281 17.140625 34.652344 18.375 34.125 C 18.523438 34.175781 18.648438 34.261719 18.75 34.375 C 18.566406 33.511719 18.816406 33.425781 19.5 34.125 C 20.183594 33.910156 20.226562 33.703125 19.625 33.5 C 20.058594 33.035156 20.347656 33.078125 20.5 33.625 C 21.136719 32.289062 21.261719 30.914062 20.875 29.5 C 21.042969 29.332031 21.207031 29.167969 21.375 29 C 21.402344 28.265625 21.402344 27.515625 21.375 26.75 C 21.761719 26.445312 22.054688 26.070312 22.25 25.625 C 22.332031 25.707031 22.417969 25.792969 22.5 25.875 C 22.621094 25.636719 22.664062 25.386719 22.625 25.125 Z M 22.625 25.125 " data-index="15"></path>
<path style="fill-rule: evenodd; fill: rgb(213, 189, 154); fill-opacity: 1; opacity: 1;" d="M 23.625 12.875 C 23.984375 13.195312 24.148438 13.613281 24.125 14.125 C 24.378906 23 24.378906 31.832031 24.125 40.625 C 24.105469 35.125 24.023438 29.625 23.875 24.125 C 23.941406 20.367188 23.859375 16.617188 23.625 12.875 Z M 23.625 12.875 " data-index="16"></path>
<path style="fill-rule: evenodd; fill: rgb(130, 101, 68); fill-opacity: 1; opacity: 1;" d="M 6.125 12.875 C 6.125 12.957031 6.125 13.042969 6.125 13.125 C 5.734375 13.703125 5.523438 14.371094 5.5 15.125 C 5.375 21.875 5.332031 28.625 5.375 35.375 C 5.207031 35.375 5.125 35.292969 5.125 35.125 C 4.726562 29.46875 4.519531 23.800781 4.5 18.125 C 4.242188 21.074219 4.035156 23.992188 3.875 26.875 C 3.875 23.542969 3.875 20.207031 3.875 16.875 C 4.125 16.875 4.375 16.875 4.625 16.875 C 4.585938 15.613281 4.667969 14.363281 4.875 13.125 C 5.304688 13.09375 5.71875 13.007812 6.125 12.875 Z M 6.125 12.875 " data-index="17"></path>
<path style="fill-rule: evenodd; fill: rgb(150, 117, 86); fill-opacity: 1; opacity: 1;" d="M 24.375 15.625 C 24.53125 15.652344 24.65625 15.734375 24.75 15.875 C 24.988281 18.710938 25.195312 21.542969 25.375 24.375 C 25.636719 24.335938 25.886719 24.378906 26.125 24.5 C 26.125 24.851562 26.042969 25.226562 25.875 25.625 C 26.019531 26.015625 26.183594 26.390625 26.375 26.75 C 26.183594 27.109375 26.019531 27.484375 25.875 27.875 C 26.078125 31.78125 26.203125 35.695312 26.25 39.625 C 26.300781 40.015625 26.425781 40.347656 26.625 40.625 C 26.457031 41.207031 26.292969 41.792969 26.125 42.375 C 25.453125 43.296875 24.621094 44.046875 23.625 44.625 C 23.042969 44.625 22.457031 44.625 21.875 44.625 C 16.664062 44.707031 11.5 44.625 6.375 44.375 C 10.457031 44.375 14.542969 44.375 18.625 44.375 C 19.875 44.375 21.125 44.375 22.375 44.375 C 22.335938 44.113281 22.378906 43.863281 22.5 43.625 C 22.96875 43.488281 23.34375 43.238281 23.625 42.875 C 24.175781 42.535156 24.550781 42.035156 24.75 41.375 C 24.9375 32.785156 24.8125 24.203125 24.375 15.625 Z M 24.375 15.625 " data-index="18"></path>
<path style="fill-rule: evenodd; fill: rgb(139, 111, 84); fill-opacity: 1; opacity: 1;" d="M 24.375 14.625 C 24.566406 14.816406 24.691406 15.066406 24.75 15.375 C 24.832031 15.125 24.917969 14.875 25 14.625 C 25.125 15.285156 25.164062 15.953125 25.125 16.625 C 25.375 16.625 25.625 16.625 25.875 16.625 C 25.878906 17.230469 26.003906 17.816406 26.25 18.375 C 26.308594 17.96875 26.515625 17.71875 26.875 17.625 C 26.894531 25.328125 26.8125 32.996094 26.625 40.625 C 26.425781 40.347656 26.300781 40.015625 26.25 39.625 C 26.203125 35.695312 26.078125 31.78125 25.875 27.875 C 26.019531 27.484375 26.183594 27.109375 26.375 26.75 C 26.183594 26.390625 26.019531 26.015625 25.875 25.625 C 26.042969 25.226562 26.125 24.851562 26.125 24.5 C 25.886719 24.378906 25.636719 24.335938 25.375 24.375 C 25.195312 21.542969 24.988281 18.710938 24.75 15.875 C 24.65625 15.734375 24.53125 15.652344 24.375 15.625 C 24.375 15.292969 24.375 14.957031 24.375 14.625 Z M 24.375 14.625 " data-index="19"></path>
<path style="fill-rule: evenodd; fill: rgb(146, 114, 79); fill-opacity: 1; opacity: 1;" d="M 5.125 35.125 C 4.964844 34.730469 4.714844 34.398438 4.375 34.125 C 4.375 33.957031 4.375 33.792969 4.375 33.625 C 3.90625 31.421875 3.738281 29.171875 3.875 26.875 C 4.035156 23.992188 4.242188 21.074219 4.5 18.125 C 4.519531 23.800781 4.726562 29.46875 5.125 35.125 Z M 5.125 35.125 " data-index="20"></path>
<path style=" stroke:none;fill-rule:evenodd;fill:rgb(64.313728%,50.980395%,37.254903%);fill-opacity:1;" d="M 24.125 14.125 C 24.335938 14.210938 24.417969 14.378906 24.375 14.625 C 24.375 14.957031 24.375 15.292969 24.375 15.625 C 24.8125 24.203125 24.9375 32.785156 24.75 41.375 C 24.550781 42.035156 24.175781 42.535156 23.625 42.875 C 23.292969 42.875 22.957031 42.875 22.625 42.875 C 22.625 42.792969 22.625 42.707031 22.625 42.625 C 23.605469 42.328125 24.105469 41.664062 24.125 40.625 C 24.378906 31.832031 24.378906 23 24.125 14.125 Z M 24.125 14.125 " data-index="21"></path>
<path style=" stroke:none;fill-rule:evenodd;fill:rgb(55.29412%,41.176471%,23.529412%);fill-opacity:1;" d="M 4.375 34.125 C 4.714844 34.398438 4.964844 34.730469 5.125 35.125 C 5.125 35.292969 5.207031 35.375 5.375 35.375 C 5.375 37.125 5.375 38.875 5.375 40.625 C 5.210938 40.847656 5.042969 41.097656 4.875 41.375 C 4.703125 41.242188 4.578125 41.078125 4.5 40.875 C 4.375 38.625 4.332031 36.375 4.375 34.125 Z M 4.375 34.125 " data-index="22"></path>
<path style="fill-rule: evenodd; fill: rgb(233, 218, 185); fill-opacity: 1; opacity: 1;" d="M 5.625 42.125 C 6.199219 42.265625 6.785156 42.390625 7.375 42.5 C 12.457031 42.625 17.539062 42.667969 22.625 42.625 C 22.625 42.707031 22.625 42.792969 22.625 42.875 C 17.375 42.875 12.125 42.875 6.875 42.875 C 6.359375 42.761719 5.941406 42.511719 5.625 42.125 Z M 5.625 42.125 " data-index="23"></path>
<path style="fill-rule: evenodd; fill: rgb(144, 105, 69); fill-opacity: 1; opacity: 1;" d="M 3.625 33.625 C 3.875 33.625 4.125 33.625 4.375 33.625 C 4.375 33.792969 4.375 33.957031 4.375 34.125 C 4.332031 36.375 4.375 38.625 4.5 40.875 C 4.578125 41.078125 4.703125 41.242188 4.875 41.375 C 5.042969 41.097656 5.210938 40.847656 5.375 40.625 C 5.300781 41.183594 5.382812 41.683594 5.625 42.125 C 5.941406 42.511719 6.359375 42.761719 6.875 42.875 C 6.769531 43.054688 6.605469 43.179688 6.375 43.25 C 7.082031 43.425781 7.75 43.675781 8.375 44 C 11.835938 44.042969 15.25 44.167969 18.625 44.375 C 14.542969 44.375 10.457031 44.375 6.375 44.375 C 6.152344 44.222656 5.902344 44.140625 5.625 44.125 C 4.832031 43.589844 4.207031 42.921875 3.75 42.125 C 3.625 39.292969 3.582031 36.460938 3.625 33.625 Z M 3.625 33.625 " data-index="24"></path>
<path style="stroke: none; fill-rule: evenodd; fill: rgb(153, 111, 64); fill-opacity: 1; opacity: 1;" d="M 6.875 42.875 C 12.125 42.875 17.375 42.875 22.625 42.875 C 22.957031 42.875 23.292969 42.875 23.625 42.875 C 23.34375 43.238281 22.96875 43.488281 22.5 43.625 C 22.378906 43.863281 22.335938 44.113281 22.375 44.375 C 21.125 44.375 19.875 44.375 18.625 44.375 C 15.25 44.167969 11.835938 44.042969 8.375 44 C 7.75 43.675781 7.082031 43.425781 6.375 43.25 C 6.605469 43.179688 6.769531 43.054688 6.875 42.875 Z M 6.875 42.875 " data-index="25"></path>
<path style="stroke: none; fill-rule: evenodd; fill: rgb(167, 130, 112); fill-opacity: 1; opacity: 1;" d="M 5.625 44.125 C 5.902344 44.140625 6.152344 44.222656 6.375 44.375 C 11.5 44.625 16.664062 44.707031 21.875 44.625 C 16.835938 44.875 11.75 44.957031 6.625 44.875 C 6.148438 44.816406 5.816406 44.566406 5.625 44.125 Z M 5.625 44.125 " data-index="26"></path>
<path style=" stroke:none;fill-rule:evenodd;fill:rgb(79.215688%,70.19608%,65.490198%);fill-opacity:1;" d="M 21.875 44.625 C 22.457031 44.625 23.042969 44.625 23.625 44.625 C 23.261719 44.824219 22.84375 44.949219 22.375 45 C 17.460938 45.125 12.542969 45.167969 7.625 45.125 C 7.226562 45.191406 6.890625 45.109375 6.625 44.875 C 11.75 44.957031 16.835938 44.875 21.875 44.625 Z M 21.875 44.625 " data-index="27"></path>
<path style=" stroke:none;fill-rule:evenodd;fill:rgb(94.901961%,92.156863%,89.803922%);fill-opacity:1;" d="M 26.125 42.375 C 25.972656 43.15625 25.640625 43.863281 25.125 44.5 C 24.179688 44.988281 23.179688 45.320312 22.125 45.5 C 17.542969 45.667969 12.957031 45.667969 8.375 45.5 C 8.066406 45.441406 7.816406 45.316406 7.625 45.125 C 12.542969 45.167969 17.460938 45.125 22.375 45 C 22.84375 44.949219 23.261719 44.824219 23.625 44.625 C 24.621094 44.046875 25.453125 43.296875 26.125 42.375 Z M 26.125 42.375 " data-index="28"></path>
</g>
</svg>
