<svg xmlns="http://www.w3.org/2000/svg" xmlns:xlink="http://www.w3.org/1999/xlink" width="35px" height="40px" viewBox="0 0 35 40" version="1.1">
<g id="surface1">

<path style=" stroke:none;fill-rule:evenodd;fill:rgb(29.803923%,16.862746%,5.490196%);fill-opacity:1;" d="M 12.8125 3.4375 C 13.5625 3.480469 14.253906 3.6875 14.894531 4.0625 C 14.113281 4.101562 13.28125 4.101562 12.394531 4.0625 C 11.769531 4.0625 11.144531 4.0625 10.519531 4.0625 C 10.242188 4.0625 9.964844 4.0625 9.6875 4.0625 C 9.917969 3.730469 9.777344 3.558594 9.269531 3.542969 C 10.449219 3.4375 11.628906 3.402344 12.8125 3.4375 Z M 12.8125 3.4375 " data-index="1"></path>
<path style=" stroke:none;fill-rule:evenodd;fill:rgb(85.490197%,61.56863%,38.82353%);fill-opacity:1;" d="M 10.519531 4.0625 C 11.144531 4.0625 11.769531 4.0625 12.394531 4.0625 C 12.394531 4.132812 12.394531 4.203125 12.394531 4.269531 C 11.554688 4.273438 10.722656 4.339844 9.894531 4.480469 C 10.105469 4.339844 10.3125 4.203125 10.519531 4.0625 Z M 10.519531 4.0625 " data-index="2"></path>
<path style=" stroke:none;fill-rule:evenodd;fill:rgb(60.000002%,34.901962%,16.078432%);fill-opacity:1;" d="M 9.6875 4.0625 C 9.964844 4.0625 10.242188 4.0625 10.519531 4.0625 C 10.3125 4.203125 10.105469 4.339844 9.894531 4.480469 C 9.234375 4.59375 8.609375 4.800781 8.019531 5.105469 C 8.421875 4.554688 8.976562 4.207031 9.6875 4.0625 Z M 9.6875 4.0625 " data-index="3"></path>
<path style="fill-rule: evenodd; fill: rgb(101, 68, 50); fill-opacity: 1; visibility: visible; opacity: 1;" d="M 12.8125 3.4375 C 11.628906 3.402344 10.449219 3.4375 9.269531 3.542969 C 9.777344 3.558594 9.917969 3.730469 9.6875 4.0625 C 8.976562 4.207031 8.421875 4.554688 8.019531 5.105469 C 7.835938 5.230469 7.625 5.300781 7.394531 5.3125 C 7.023438 5.253906 6.675781 5.324219 6.355469 5.519531 C 5.984375 6.207031 5.566406 6.347656 5.105469 5.9375 C 7.171875 3.511719 9.738281 2.679688 12.8125 3.4375 Z M 12.8125 3.4375 " data-index="4"></path>
<path style="fill-rule: evenodd; fill: rgb(254, 246, 220); fill-opacity: 1; opacity: 1;" d="M 12.394531 4.269531 C 16.617188 5.335938 18.527344 8.042969 18.125 12.394531 C 17.820312 13.558594 17.300781 14.601562 16.5625 15.519531 C 13.765625 18.132812 10.710938 18.480469 7.394531 16.5625 C 6.328125 15.773438 5.496094 14.800781 4.894531 13.644531 C 4.675781 12.054688 4.640625 10.457031 4.792969 8.855469 C 5.257812 7.363281 6.125 6.183594 7.394531 5.3125 C 7.625 5.300781 7.835938 5.230469 8.019531 5.105469 C 8.609375 4.800781 9.234375 4.59375 9.894531 4.480469 C 10.722656 4.339844 11.554688 4.273438 12.394531 4.269531 Z M 12.394531 4.269531 " data-index="5"></path>
<path style="fill-rule: evenodd; fill: rgb(132, 94, 64); fill-opacity: 1; opacity: 1;" d="M 26.144531 5.519531 C 25.515625 5.488281 24.890625 5.519531 24.269531 5.625 C 25.035156 5.695312 25.796875 5.765625 26.5625 5.832031 C 25.9375 5.902344 25.3125 5.972656 24.6875 6.042969 C 25.214844 6.082031 25.703125 6.183594 26.144531 6.355469 C 25.449219 6.320312 24.753906 6.355469 24.0625 6.457031 C 23.878906 6.605469 23.738281 6.78125 23.644531 6.980469 C 22.203125 8.121094 22.03125 9.441406 23.125 10.9375 C 23.714844 11.449219 24.410156 11.660156 25.207031 11.5625 C 26.140625 11.722656 26.871094 11.441406 27.394531 10.730469 C 27.382812 10.820312 27.417969 10.890625 27.5 10.9375 C 27.824219 10.40625 28.136719 10.40625 28.4375 10.9375 C 28.84375 10.078125 28.949219 9.175781 28.75 8.230469 C 28.527344 7.996094 28.285156 7.789062 28.019531 7.605469 C 28.253906 7.445312 28.390625 7.238281 28.4375 6.980469 C 29.117188 7.574219 29.394531 8.339844 29.269531 9.269531 C 29.417969 10.816406 28.792969 11.890625 27.394531 12.5 C 25.710938 12.667969 24.046875 12.632812 22.394531 12.394531 C 21.980469 11.839844 21.5625 11.285156 21.144531 10.730469 C 20.949219 10.40625 20.8125 10.058594 20.730469 9.6875 C 20.929688 8.027344 21.695312 6.671875 23.019531 5.625 C 24.082031 5.273438 25.125 5.238281 26.144531 5.519531 Z M 26.144531 5.519531 " data-index="6"></path>
<path style=" stroke:none;fill-rule:evenodd;fill:rgb(43.529412%,27.843139%,14.509805%);fill-opacity:1;" d="M 26.144531 5.519531 C 27.148438 5.640625 27.914062 6.125 28.4375 6.980469 C 28.390625 7.238281 28.253906 7.445312 28.019531 7.605469 C 28.285156 7.789062 28.527344 7.996094 28.75 8.230469 C 28.949219 9.175781 28.84375 10.078125 28.4375 10.9375 C 28.136719 10.40625 27.824219 10.40625 27.5 10.9375 C 27.417969 10.890625 27.382812 10.820312 27.394531 10.730469 C 27.394531 10.660156 27.394531 10.589844 27.394531 10.519531 C 27.664062 10.40625 27.839844 10.195312 27.917969 9.894531 C 28.320312 8.203125 27.730469 7.023438 26.144531 6.355469 C 25.703125 6.183594 25.214844 6.082031 24.6875 6.042969 C 25.3125 5.972656 25.9375 5.902344 26.5625 5.832031 C 25.796875 5.765625 25.035156 5.695312 24.269531 5.625 C 24.890625 5.519531 25.515625 5.488281 26.144531 5.519531 Z M 26.144531 5.519531 " data-index="7"></path>
<path style="fill-rule: evenodd; fill: rgb(101, 66, 34); fill-opacity: 1; opacity: 1;" d="M 11.144531 5.730469 C 11.445312 5.496094 11.792969 5.460938 12.1875 5.625 C 13.652344 6.257812 14.867188 7.195312 15.832031 8.4375 C 15.988281 8.675781 15.953125 8.882812 15.730469 9.0625 C 14.1875 7.945312 12.660156 6.835938 11.144531 5.730469 Z M 11.144531 5.730469 " data-index="8"></path>
<path style="fill-rule: evenodd; fill: rgb(253, 248, 230); fill-opacity: 1; visibility: visible; opacity: 1;" d="M 25.105469 8.230469 C 25.386719 8.859375 25.871094 9.136719 26.5625 9.0625 C 27.015625 9.210938 27.433594 9.277344 27.8125 9.269531 C 27.605469 9.511719 27.398438 9.757812 27.1875 10 C 27.238281 10.1875 27.308594 10.363281 27.394531 10.519531 C 27.394531 10.589844 27.394531 10.660156 27.394531 10.730469 C 26.871094 11.441406 26.140625 11.722656 25.207031 11.5625 C 24.410156 11.660156 23.714844 11.449219 23.125 10.9375 C 22.03125 9.441406 22.203125 8.121094 23.644531 6.980469 C 23.988281 6.796875 24.335938 6.695312 24.6875 6.667969 C 24.816406 7.210938 24.957031 7.730469 25.105469 8.230469 Z M 25.105469 8.230469 " data-index="9"></path>
<path style="stroke: none; fill-rule: evenodd; fill: rgb(125, 87, 48); fill-opacity: 1; visibility: visible;" d="M 26.5625 9.0625 C 25.871094 9.136719 25.386719 8.859375 25.105469 8.230469 C 25.253906 7.054688 25.773438 6.984375 26.667969 8.019531 C 26.800781 8.386719 26.765625 8.734375 26.5625 9.0625 Z M 26.5625 9.0625 " data-index="10"></path>
<path style="fill-rule: evenodd; fill: rgb(245, 236, 211); fill-opacity: 1; visibility: visible; opacity: 1;" d="M 26.144531 6.355469 C 27.730469 7.023438 28.320312 8.203125 27.917969 9.894531 C 27.839844 10.195312 27.664062 10.40625 27.394531 10.519531 C 27.308594 10.363281 27.238281 10.1875 27.1875 10 C 27.398438 9.757812 27.605469 9.511719 27.8125 9.269531 C 27.433594 9.277344 27.015625 9.210938 26.5625 9.0625 C 26.765625 8.734375 26.800781 8.386719 26.667969 8.019531 C 25.773438 6.984375 25.253906 7.054688 25.105469 8.230469 C 24.957031 7.730469 24.816406 7.210938 24.6875 6.667969 C 24.335938 6.695312 23.988281 6.796875 23.644531 6.980469 C 23.738281 6.78125 23.878906 6.605469 24.0625 6.457031 C 24.753906 6.355469 25.449219 6.320312 26.144531 6.355469 Z M 26.144531 6.355469 " data-index="11"></path>
<path style=" stroke:none;fill-rule:evenodd;fill:rgb(46.27451%,32.156864%,20.784314%);fill-opacity:1;" d="M 7.394531 5.3125 C 6.125 6.183594 5.257812 7.363281 4.792969 8.855469 C 4.640625 10.457031 4.675781 12.054688 4.894531 13.644531 C 4.523438 12.695312 4.351562 11.652344 4.375 10.519531 C 4.304688 10.660156 4.234375 10.796875 4.167969 10.9375 C 4.097656 10.589844 4.027344 10.242188 3.957031 9.894531 C 3.855469 10.378906 3.820312 10.863281 3.855469 11.355469 C 3.5 11.246094 3.222656 11.039062 3.019531 10.730469 C 3.371094 10.464844 3.613281 10.117188 3.75 9.6875 C 3.570312 8.183594 4.019531 6.933594 5.105469 5.9375 C 5.566406 6.347656 5.984375 6.207031 6.355469 5.519531 C 6.675781 5.324219 7.023438 5.253906 7.394531 5.3125 Z M 7.394531 5.3125 " data-index="12"></path>

<path style="fill-rule: evenodd; fill: rgb(251, 249, 237); fill-opacity: 1; opacity: 1; stroke-width: 2px; stroke: rgb(13, 153, 255); visibility: hidden;" d="M 21.144531 10.730469 C 21.5625 11.285156 21.980469 11.839844 22.394531 12.394531 C 21.902344 12.546875 21.453125 12.40625 21.042969 11.980469 C 20.902344 12.117188 20.765625 12.257812 20.625 12.394531 C 20.179688 13.972656 19.554688 15.363281 18.75 16.5625 C 18.015625 17.785156 16.972656 18.617188 15.625 19.0625 C 14.726562 18.582031 13.789062 18.511719 12.8125 18.855469 C 13.480469 18.550781 14.175781 18.273438 14.894531 18.019531 C 16.390625 17.328125 17.605469 16.285156 18.542969 14.894531 C 19.050781 13.566406 19.570312 12.25 20.105469 10.9375 C 20.425781 10.769531 20.773438 10.703125 21.144531 10.730469 Z M 21.144531 10.730469 " data-index="14"></path>
<path style="fill-rule: evenodd; fill: rgb(117, 79, 47); fill-opacity: 1; opacity: 1;" d="M 12.394531 4.269531 C 12.394531 4.203125 12.394531 4.132812 12.394531 4.0625 C 13.28125 4.101562 14.113281 4.101562 14.894531 4.0625 C 15.96875 4.472656 16.90625 5.097656 17.707031 5.9375 C 18.402344 7.355469 19.128906 8.746094 19.894531 10.105469 C 19.964844 10.382812 20.035156 10.660156 20.105469 10.9375 C 19.570312 12.25 19.050781 13.566406 18.542969 14.894531 C 17.605469 16.285156 16.390625 17.328125 14.894531 18.019531 C 15.632812 17.25 16.328125 16.453125 16.980469 15.625 C 16.855469 15.527344 16.714844 15.492188 16.5625 15.519531 C 17.300781 14.601562 17.820312 13.558594 18.125 12.394531 C 18.527344 8.042969 16.617188 5.335938 12.394531 4.269531 Z M 12.394531 4.269531 " data-index="15"></path>
<path style=" stroke:none;fill-rule:evenodd;fill:rgb(36.078432%,22.352941%,14.117648%);fill-opacity:1;" d="M 4.894531 13.644531 C 4.902344 13.855469 4.796875 13.992188 4.582031 14.0625 C 4.25 13.945312 4.007812 13.734375 3.855469 13.4375 C 3.855469 12.742188 3.855469 12.046875 3.855469 11.355469 C 3.820312 10.863281 3.855469 10.378906 3.957031 9.894531 C 4.027344 10.242188 4.097656 10.589844 4.167969 10.9375 C 4.234375 10.796875 4.304688 10.660156 4.375 10.519531 C 4.351562 11.652344 4.523438 12.695312 4.894531 13.644531 Z M 4.894531 13.644531 " data-index="16"></path>
<path style=" stroke:none;fill-rule:evenodd;fill:rgb(34.901962%,22.745098%,15.686275%);fill-opacity:1;" d="M 27.394531 14.894531 C 27.671875 15.035156 27.953125 15.171875 28.230469 15.3125 C 26.269531 15.277344 24.324219 15.417969 22.394531 15.730469 C 22.976562 15.191406 23.667969 14.878906 24.480469 14.792969 C 25.453125 14.695312 26.425781 14.730469 27.394531 14.894531 Z M 27.394531 14.894531 " data-index="17"></path>
<path style=" stroke:none;fill-rule:evenodd;fill:rgb(37.254903%,20%,8.627451%);fill-opacity:1;" d="M 28.230469 15.3125 C 28.480469 15.402344 28.691406 15.542969 28.855469 15.730469 C 28.4375 15.796875 28.019531 15.867188 27.605469 15.9375 C 27.464844 15.9375 27.328125 15.9375 27.1875 15.9375 C 24.855469 15.234375 22.878906 15.789062 21.25 17.605469 C 21.148438 17.386719 21.183594 17.175781 21.355469 16.980469 C 21.800781 16.640625 22.148438 16.226562 22.394531 15.730469 C 24.324219 15.417969 26.269531 15.277344 28.230469 15.3125 Z M 28.230469 15.3125 " data-index="18"></path>
<path style=" stroke:none;fill-rule:evenodd;fill:rgb(44.313726%,29.803923%,17.647059%);fill-opacity:1;" d="M 3.855469 13.4375 C 4.007812 13.734375 4.25 13.945312 4.582031 14.0625 C 4.796875 13.992188 4.902344 13.855469 4.894531 13.644531 C 5.496094 14.800781 6.328125 15.773438 7.394531 16.5625 C 7.152344 16.515625 6.941406 16.585938 6.769531 16.769531 C 6.902344 16.960938 6.972656 17.171875 6.980469 17.394531 C 5.289062 16.582031 4.246094 15.261719 3.855469 13.4375 Z M 3.855469 13.4375 " data-index="19"></path>
<path style=" stroke:none;fill-rule:evenodd;fill:rgb(93.725491%,80.784315%,67.450982%);fill-opacity:1;" d="M 27.1875 15.9375 C 27.328125 15.9375 27.464844 15.9375 27.605469 15.9375 C 27.605469 16.007812 27.605469 16.078125 27.605469 16.144531 C 26.351562 16.1875 25.101562 16.257812 23.855469 16.355469 C 24.90625 15.988281 26.019531 15.847656 27.1875 15.9375 Z M 27.1875 15.9375 " data-index="20"></path>
<path style=" stroke:none;fill-rule:evenodd;fill:rgb(56.470591%,46.27451%,31.764707%);fill-opacity:1;" d="M 27.394531 14.894531 C 29.027344 14.730469 30.207031 15.355469 30.9375 16.769531 C 30.796875 16.839844 30.660156 16.910156 30.519531 16.980469 C 30.027344 16.488281 29.472656 16.070312 28.855469 15.730469 C 28.691406 15.542969 28.480469 15.402344 28.230469 15.3125 C 27.953125 15.171875 27.671875 15.035156 27.394531 14.894531 Z M 27.394531 14.894531 " data-index="21"></path>
<path style="fill-rule: evenodd; fill: rgb(100, 55, 30); fill-opacity: 1; opacity: 1;" d="M 16.5625 15.519531 C 16.714844 15.492188 16.855469 15.527344 16.980469 15.625 C 16.328125 16.453125 15.632812 17.25 14.894531 18.019531 C 14.175781 18.273438 13.480469 18.550781 12.8125 18.855469 C 12.109375 18.820312 11.414062 18.890625 10.730469 19.0625 C 10.085938 18.894531 9.460938 18.6875 8.855469 18.4375 C 8.347656 18.152344 7.792969 17.945312 7.1875 17.8125 C 7.117188 17.671875 7.046875 17.535156 6.980469 17.394531 C 6.972656 17.171875 6.902344 16.960938 6.769531 16.769531 C 6.941406 16.585938 7.152344 16.515625 7.394531 16.5625 C 10.710938 18.480469 13.765625 18.132812 16.5625 15.519531 Z M 16.5625 15.519531 " data-index="22"></path>
<path style="fill-rule: evenodd; fill: rgb(252, 249, 234); fill-opacity: 1; visibility: visible; opacity: 1;" d="M 27.605469 16.144531 C 28.171875 16.097656 28.65625 16.269531 29.0625 16.667969 C 29.527344 17.097656 29.945312 17.546875 30.3125 18.019531 C 31.179688 19.75 31.109375 21.417969 30.105469 23.019531 C 30.035156 22.46875 30.171875 21.984375 30.519531 21.5625 C 30.359375 21.308594 30.1875 21.308594 30 21.5625 C 29.433594 21.039062 28.808594 20.621094 28.125 20.3125 C 27.953125 20.347656 27.777344 20.382812 27.605469 20.417969 C 27.761719 20.800781 27.832031 21.214844 27.8125 21.667969 C 27.53125 21.992188 27.390625 22.375 27.394531 22.8125 C 26.820312 22.875 26.300781 23.082031 25.832031 23.4375 C 25.757812 22.804688 25.621094 22.734375 25.417969 23.230469 C 24.8125 22.636719 24.152344 22.113281 23.4375 21.667969 C 23.285156 21.300781 23.285156 20.882812 23.4375 20.417969 C 22.886719 20.242188 22.402344 20.347656 21.980469 20.730469 C 22.128906 21.203125 22.230469 21.6875 22.292969 22.1875 C 23.367188 23.628906 24.757812 24.394531 26.457031 24.480469 C 26.617188 24.808594 27 24.945312 27.605469 24.894531 C 24.667969 25.71875 22.585938 24.746094 21.355469 21.980469 C 20.910156 19.480469 21.746094 17.605469 23.855469 16.355469 C 25.101562 16.257812 26.351562 16.1875 27.605469 16.144531 Z M 27.605469 16.144531 " data-index="23"></path>
<path style=" stroke:none;fill-rule:evenodd;fill:rgb(47.843137%,26.666668%,8.627451%);fill-opacity:1;" d="M 28.855469 15.730469 C 29.472656 16.070312 30.027344 16.488281 30.519531 16.980469 C 30.648438 17.164062 30.71875 17.375 30.730469 17.605469 C 30.519531 17.671875 30.382812 17.8125 30.3125 18.019531 C 29.945312 17.546875 29.527344 17.097656 29.0625 16.667969 C 28.65625 16.269531 28.171875 16.097656 27.605469 16.144531 C 27.605469 16.078125 27.605469 16.007812 27.605469 15.9375 C 28.019531 15.867188 28.4375 15.796875 28.855469 15.730469 Z M 28.855469 15.730469 " data-index="24"></path>
<path style="fill-rule: evenodd; fill: rgb(136, 89, 57); fill-opacity: 1; opacity: 1;" d="M 22.394531 15.730469 C 22.148438 16.226562 21.800781 16.640625 21.355469 16.980469 C 21.183594 17.175781 21.148438 17.386719 21.25 17.605469 C 22.878906 15.789062 24.855469 15.234375 27.1875 15.9375 C 26.019531 15.847656 24.90625 15.988281 23.855469 16.355469 C 21.746094 17.605469 20.910156 19.480469 21.355469 21.980469 C 21.246094 22.503906 21.039062 22.992188 20.730469 23.4375 C 19.777344 22.214844 19.464844 20.824219 19.792969 19.269531 C 20.066406 18.585938 20.347656 17.890625 20.625 17.1875 C 21.132812 16.574219 21.722656 16.085938 22.394531 15.730469 Z M 22.394531 15.730469 " data-index="25"></path>
<path style=" stroke:none;fill-rule:evenodd;fill:rgb(82.352942%,74.901962%,68.235296%);fill-opacity:1;" d="M 7.1875 17.8125 C 7.792969 17.945312 8.347656 18.152344 8.855469 18.4375 C 8.136719 18.5625 7.582031 18.355469 7.1875 17.8125 Z M 7.1875 17.8125 " data-index="26"></path>
<path style=" stroke:none;fill-rule:evenodd;fill:rgb(46.27451%,27.450982%,12.941177%);fill-opacity:1;" d="M 26.144531 16.980469 C 27.808594 17.390625 29.058594 18.363281 29.894531 19.894531 C 29.628906 20.085938 29.347656 20.050781 29.0625 19.792969 C 28.289062 19.085938 27.453125 18.460938 26.5625 17.917969 C 26.242188 17.683594 26.105469 17.371094 26.144531 16.980469 Z M 26.144531 16.980469 " data-index="27"></path>
<path style="fill-rule: evenodd; fill: rgb(254, 253, 243); fill-opacity: 1; visibility: visible; opacity: 1;" d="M 30.105469 23.019531 C 29.636719 24.113281 28.800781 24.738281 27.605469 24.894531 C 27 24.945312 26.617188 24.808594 26.457031 24.480469 C 24.757812 24.394531 23.367188 23.628906 22.292969 22.1875 C 22.230469 21.6875 22.128906 21.203125 21.980469 20.730469 C 22.402344 20.347656 22.886719 20.242188 23.4375 20.417969 C 23.285156 20.882812 23.285156 21.300781 23.4375 21.667969 C 24.152344 22.113281 24.8125 22.636719 25.417969 23.230469 C 25.621094 22.734375 25.757812 22.804688 25.832031 23.4375 C 26.300781 23.082031 26.820312 22.875 27.394531 22.8125 C 27.390625 22.375 27.53125 21.992188 27.8125 21.667969 C 27.832031 21.214844 27.761719 20.800781 27.605469 20.417969 C 27.777344 20.382812 27.953125 20.347656 28.125 20.3125 C 28.808594 20.621094 29.433594 21.039062 30 21.5625 C 30.1875 21.308594 30.359375 21.308594 30.519531 21.5625 C 30.171875 21.984375 30.035156 22.46875 30.105469 23.019531 Z M 30.105469 23.019531 " data-index="28"></path>
<path style="stroke: none; fill-rule: evenodd; fill: rgb(78, 45, 21); fill-opacity: 1; visibility: visible;" d="M 16.5625 21.5625 C 16.570312 21.789062 16.640625 21.996094 16.769531 22.1875 C 16.675781 22.355469 16.535156 22.421875 16.355469 22.394531 C 15.960938 21.582031 15.335938 21.375 14.480469 21.769531 C 13.613281 21.660156 12.777344 21.519531 11.980469 21.355469 C 12.597656 21.089844 13.257812 20.882812 13.957031 20.730469 C 14.820312 21.027344 15.6875 21.304688 16.5625 21.5625 Z M 16.5625 21.5625 " data-index="29"></path>
<path style="fill-rule: evenodd; fill: rgb(253, 252, 240); fill-opacity: 1; opacity: 1;" d="M 13.644531 23.4375 C 14.273438 24.066406 14.96875 24.621094 15.730469 25.105469 C 16.023438 25.300781 16.371094 25.371094 16.769531 25.3125 C 16.8125 25.902344 16.949219 26.457031 17.1875 26.980469 C 16.226562 29.003906 14.628906 29.734375 12.394531 29.167969 C 10.582031 28.398438 9.746094 27.046875 9.894531 25.105469 C 10.070312 24.476562 10.382812 23.921875 10.832031 23.4375 C 11.136719 23.027344 11.515625 22.75 11.980469 22.605469 C 12.90625 22.25 13.355469 22.597656 13.332031 23.644531 C 13.414062 23.53125 13.515625 23.460938 13.644531 23.4375 Z M 13.644531 23.4375 " data-index="30"></path>
<path style=" stroke:none;fill-rule:evenodd;fill:rgb(37.64706%,22.352941%,11.764706%);fill-opacity:1;" d="M 14.0625 23.019531 C 14.976562 23.34375 15.671875 23.933594 16.144531 24.792969 C 16.074219 25.007812 15.9375 25.109375 15.730469 25.105469 C 14.96875 24.621094 14.273438 24.066406 13.644531 23.4375 C 13.644531 23.367188 13.644531 23.296875 13.644531 23.230469 C 13.71875 23.054688 13.855469 22.984375 14.0625 23.019531 Z M 14.0625 23.019531 " data-index="31"></path>
<path style=" stroke:none;fill-rule:evenodd;fill:rgb(47.843137%,33.725491%,20.784314%);fill-opacity:1;" d="M 30.9375 16.769531 C 32.441406 19.375 32.441406 22.015625 30.9375 24.6875 C 30.71875 24.65625 30.511719 24.691406 30.3125 24.792969 C 30.132812 25.210938 29.855469 25.523438 29.480469 25.730469 C 28.8125 26.019531 28.117188 26.230469 27.394531 26.355469 C 27.675781 26.085938 28.023438 25.910156 28.4375 25.832031 C 28.558594 25.519531 28.699219 25.207031 28.855469 24.894531 C 29.789062 24.273438 30.65625 23.578125 31.457031 22.8125 C 31.652344 21.496094 31.722656 20.175781 31.667969 18.855469 C 31.597656 19.203125 31.527344 19.546875 31.457031 19.894531 C 31.347656 19.265625 31.207031 18.640625 31.042969 18.019531 C 30.949219 18.527344 30.773438 18.5625 30.519531 18.125 C 30.675781 17.984375 30.746094 17.8125 30.730469 17.605469 C 30.71875 17.375 30.648438 17.164062 30.519531 16.980469 C 30.660156 16.910156 30.796875 16.839844 30.9375 16.769531 Z M 30.9375 16.769531 " data-index="32"></path>
<path style="fill-rule: evenodd; fill: rgb(106, 61, 32); fill-opacity: 1; opacity: 1;" d="M 11.980469 21.355469 C 12.777344 21.519531 13.613281 21.660156 14.480469 21.769531 C 15.335938 21.375 15.960938 21.582031 16.355469 22.394531 C 16.214844 22.394531 16.078125 22.394531 15.9375 22.394531 C 14.863281 21.992188 13.753906 21.890625 12.605469 22.082031 C 12.304688 22.160156 12.09375 22.335938 11.980469 22.605469 C 11.515625 22.75 11.136719 23.027344 10.832031 23.4375 C 10.382812 23.921875 10.070312 24.476562 9.894531 25.105469 C 9.691406 25.683594 9.621094 26.308594 9.6875 26.980469 C 8.75 26.84375 8.402344 26.285156 8.644531 25.3125 C 8.859375 23.222656 9.972656 21.90625 11.980469 21.355469 Z M 11.980469 21.355469 " data-index="33"></path>
<path style="fill-rule: evenodd; fill: rgb(242, 231, 211); fill-opacity: 1; visibility: visible; opacity: 1;" d="M 15.9375 22.394531 C 17.0625 23.480469 17.617188 24.800781 17.605469 26.355469 C 17.464844 26.5625 17.328125 26.769531 17.1875 26.980469 C 16.949219 26.457031 16.8125 25.902344 16.769531 25.3125 C 16.371094 25.371094 16.023438 25.300781 15.730469 25.105469 C 15.9375 25.109375 16.074219 25.007812 16.144531 24.792969 C 15.671875 23.933594 14.976562 23.34375 14.0625 23.019531 C 13.878906 22.753906 13.667969 22.753906 13.4375 23.019531 C 13.464844 23.148438 13.53125 23.214844 13.644531 23.230469 C 13.644531 23.296875 13.644531 23.367188 13.644531 23.4375 C 13.515625 23.460938 13.414062 23.53125 13.332031 23.644531 C 13.355469 22.597656 12.90625 22.25 11.980469 22.605469 C 12.09375 22.335938 12.304688 22.160156 12.605469 22.082031 C 13.753906 21.890625 14.863281 21.992188 15.9375 22.394531 Z M 15.9375 22.394531 " data-index="34"></path>
<path style="stroke: none; fill-rule: evenodd; fill: rgb(172, 134, 93); fill-opacity: 1; visibility: visible;" d="M 14.0625 23.019531 C 13.855469 22.984375 13.71875 23.054688 13.644531 23.230469 C 13.53125 23.214844 13.464844 23.148438 13.4375 23.019531 C 13.667969 22.753906 13.878906 22.753906 14.0625 23.019531 Z M 14.0625 23.019531 " data-index="35"></path>

<path style="fill-rule: evenodd; fill: rgb(102, 65, 31); fill-opacity: 1; opacity: 1;" d="M 16.5625 21.5625 C 17.796875 22.667969 18.628906 24.058594 19.0625 25.730469 C 18.566406 27.070312 17.90625 28.320312 17.082031 29.480469 C 16.5 29.894531 15.839844 30.101562 15.105469 30.105469 C 15.847656 29.320312 16.679688 28.628906 17.605469 28.019531 C 17.496094 27.875 17.355469 27.773438 17.1875 27.707031 C 17.402344 27.371094 17.644531 27.335938 17.917969 27.605469 C 18.242188 27.132812 18.277344 26.644531 18.019531 26.144531 C 17.878906 26.222656 17.738281 26.289062 17.605469 26.355469 C 17.617188 24.800781 17.0625 23.480469 15.9375 22.394531 C 16.078125 22.394531 16.214844 22.394531 16.355469 22.394531 C 16.535156 22.421875 16.675781 22.355469 16.769531 22.1875 C 16.640625 21.996094 16.570312 21.789062 16.5625 21.5625 Z M 16.5625 21.5625 " data-index="37"></path>
<path style="fill-rule: evenodd; fill: rgb(127, 80, 40); fill-opacity: 1; opacity: 1;" d="M 30.730469 17.605469 C 30.746094 17.8125 30.675781 17.984375 30.519531 18.125 C 30.773438 18.5625 30.949219 18.527344 31.042969 18.019531 C 31.207031 18.640625 31.347656 19.265625 31.457031 19.894531 C 31.527344 19.546875 31.597656 19.203125 31.667969 18.855469 C 31.722656 20.175781 31.652344 21.496094 31.457031 22.8125 C 30.65625 23.578125 29.789062 24.273438 28.855469 24.894531 C 28.699219 25.207031 28.558594 25.519531 28.4375 25.832031 C 28.023438 25.910156 27.675781 26.085938 27.394531 26.355469 C 24.503906 26.992188 22.28125 26.019531 20.730469 23.4375 C 21.039062 22.992188 21.246094 22.503906 21.355469 21.980469 C 22.585938 24.746094 24.667969 25.71875 27.605469 24.894531 C 28.800781 24.738281 29.636719 24.113281 30.105469 23.019531 C 31.109375 21.417969 31.179688 19.75 30.3125 18.019531 C 30.382812 17.8125 30.519531 17.671875 30.730469 17.605469 Z M 30.730469 17.605469 " data-index="38"></path>
<path style="fill-rule: evenodd; fill: rgb(118, 68, 29); fill-opacity: 1; opacity: 1;" d="M 9.894531 25.105469 C 9.746094 27.046875 10.582031 28.398438 12.394531 29.167969 C 14.628906 29.734375 16.226562 29.003906 17.1875 26.980469 C 17.328125 26.769531 17.464844 26.5625 17.605469 26.355469 C 17.738281 26.289062 17.878906 26.222656 18.019531 26.144531 C 18.277344 26.644531 18.242188 27.132812 17.917969 27.605469 C 17.644531 27.335938 17.402344 27.371094 17.1875 27.707031 C 17.355469 27.773438 17.496094 27.875 17.605469 28.019531 C 16.679688 28.628906 15.847656 29.320312 15.105469 30.105469 C 14.652344 30.539062 14.09375 30.746094 13.4375 30.730469 C 10.859375 30.132812 9.195312 28.570312 8.4375 26.042969 C 8.441406 25.753906 8.511719 25.511719 8.644531 25.3125 C 8.402344 26.285156 8.75 26.84375 9.6875 26.980469 C 9.621094 26.308594 9.691406 25.683594 9.894531 25.105469 Z M 9.894531 25.105469 " data-index="39"></path>
<path style="fill-rule: evenodd; fill: rgb(118, 71, 37); fill-opacity: 1; opacity: 1;" d="M 22.8125 29.0625 C 22.75 29.199219 22.679688 29.335938 22.605469 29.480469 C 23.570312 29.6875 24.542969 29.859375 25.519531 30 C 25.695312 30.210938 25.765625 30.453125 25.730469 30.730469 C 24.421875 29.816406 23.242188 29.953125 22.1875 31.144531 C 21.675781 31.433594 21.46875 31.882812 21.5625 32.5 C 21.832031 34.410156 22.945312 35.140625 24.894531 34.6875 C 24.890625 34.96875 25.027344 35.28125 25.3125 35.625 C 24.847656 35.742188 24.433594 35.917969 24.0625 36.144531 C 23.558594 36.140625 23.070312 36.035156 22.605469 35.832031 C 21.941406 35.410156 21.316406 34.957031 20.730469 34.480469 C 20.421875 33.535156 20.28125 32.5625 20.3125 31.5625 C 20.652344 30.25 21.488281 29.414062 22.8125 29.0625 Z M 22.8125 29.0625 " data-index="40"></path>
<path style=" stroke:none;fill-rule:evenodd;fill:rgb(94.509804%,93.333334%,82.352942%);fill-opacity:1;" d="M 25.730469 30.730469 C 26.027344 31.027344 26.234375 31.371094 26.355469 31.769531 C 26.226562 31.746094 26.121094 31.679688 26.042969 31.5625 C 25.863281 31.785156 25.691406 31.992188 25.519531 32.1875 C 25.394531 31.472656 24.941406 31.054688 24.167969 30.9375 C 23.824219 31.035156 23.582031 31.246094 23.4375 31.5625 C 23.101562 31.234375 22.683594 31.09375 22.1875 31.144531 C 23.242188 29.953125 24.421875 29.816406 25.730469 30.730469 Z M 25.730469 30.730469 " data-index="41"></path>
<path style="fill-rule: evenodd; fill: rgb(251, 249, 242); fill-opacity: 1; visibility: visible; opacity: 1;" d="M 22.1875 31.144531 C 22.683594 31.09375 23.101562 31.234375 23.4375 31.5625 C 23.71875 32.515625 24.34375 32.828125 25.3125 32.5 C 25.429688 32.421875 25.496094 32.316406 25.519531 32.1875 C 25.691406 31.992188 25.863281 31.785156 26.042969 31.5625 C 26.121094 31.679688 26.226562 31.746094 26.355469 31.769531 C 26.40625 33.03125 25.921875 34.003906 24.894531 34.6875 C 22.945312 35.140625 21.832031 34.410156 21.5625 32.5 C 21.46875 31.882812 21.675781 31.433594 22.1875 31.144531 Z M 22.1875 31.144531 " data-index="42"></path>
<path style="stroke: none; fill-rule: evenodd; fill: rgb(234, 210, 188); fill-opacity: 1; visibility: visible;" d="M 20.3125 31.5625 C 20.28125 32.5625 20.421875 33.535156 20.730469 34.480469 C 20.507812 34.25 20.335938 33.972656 20.207031 33.644531 C 20.039062 32.910156 20.074219 32.214844 20.3125 31.5625 Z M 20.3125 31.5625 " data-index="43"></path>
<path style="stroke: none; fill-rule: evenodd; fill: rgb(122, 92, 65); fill-opacity: 1; visibility: visible;" d="M 25.519531 32.1875 C 25.496094 32.316406 25.429688 32.421875 25.3125 32.5 C 24.34375 32.828125 23.71875 32.515625 23.4375 31.5625 C 23.582031 31.246094 23.824219 31.035156 24.167969 30.9375 C 24.941406 31.054688 25.394531 31.472656 25.519531 32.1875 Z M 25.519531 32.1875 " data-index="44"></path>
<path style="fill-rule: evenodd; fill: rgb(103, 62, 31); fill-opacity: 1; opacity: 1;" d="M 25.3125 35.9375 C 25.082031 35.949219 24.875 36.019531 24.6875 36.144531 C 24.480469 36.144531 24.269531 36.144531 24.0625 36.144531 C 24.433594 35.917969 24.847656 35.742188 25.3125 35.625 C 25.027344 35.28125 24.890625 34.96875 24.894531 34.6875 C 25.921875 34.003906 26.40625 33.03125 26.355469 31.769531 C 26.234375 31.371094 26.027344 31.027344 25.730469 30.730469 C 25.765625 30.453125 25.695312 30.210938 25.519531 30 C 24.542969 29.859375 23.570312 29.6875 22.605469 29.480469 C 22.679688 29.335938 22.75 29.199219 22.8125 29.0625 C 24.914062 28.601562 26.476562 29.367188 27.5 31.355469 C 27.78125 33.398438 27.054688 34.925781 25.3125 35.9375 Z M 25.3125 35.9375 " data-index="45"></path>

<path style="fill-rule: evenodd; fill: rgb(195, 169, 154); fill-opacity: 1; opacity: 1; stroke-width: 2px; stroke: rgb(13, 153, 255); visibility: hidden;" d="M 20.9375 35.3125 C 21.511719 35.597656 22.066406 35.910156 22.605469 36.25 C 23.339844 36.417969 24.035156 36.382812 24.6875 36.144531 C 24.875 36.019531 25.082031 35.949219 25.3125 35.9375 C 25.21875 36.136719 25.078125 36.3125 24.894531 36.457031 C 24.199219 36.550781 23.503906 36.65625 22.8125 36.769531 C 21.882812 36.675781 21.257812 36.1875 20.9375 35.3125 Z M 20.9375 35.3125 " data-index="47"></path>
</g>
</svg>
