<svg xmlns="http://www.w3.org/2000/svg" xmlns:xlink="http://www.w3.org/1999/xlink" width="40px" height="38px" viewBox="0 0 40 38" version="1.1">
<g id="surface1">

<path style="stroke: none; fill-rule: evenodd; fill: rgb(146, 125, 103); fill-opacity: 1; visibility: hidden;" d="M 25.105469 5.171875 C 22.078125 4.90625 19.023438 4.90625 15.9375 5.171875 C 15.796875 5.242188 15.660156 5.3125 15.519531 5.382812 C 15.503906 5.171875 15.574219 4.996094 15.730469 4.855469 C 18.714844 4.714844 21.703125 4.714844 24.6875 4.855469 C 24.878906 4.914062 25.015625 5.019531 25.105469 5.171875 Z M 25.105469 5.171875 " data-index="1"></path>
<path style="fill-rule: evenodd; fill: rgb(119, 91, 64); fill-opacity: 1; opacity: 1;" d="M 15.9375 5.171875 C 19.023438 4.90625 22.078125 4.90625 25.105469 5.171875 C 25.46875 6.125 25.882812 6.898438 26.355469 7.496094 C 26.324219 7.816406 26.1875 8.027344 25.9375 8.128906 C 25.503906 7.460938 25.160156 6.753906 24.894531 6.015625 C 24.726562 5.8125 24.519531 5.636719 24.269531 5.488281 C 21.476562 5.449219 18.699219 5.34375 15.9375 5.171875 Z M 15.9375 5.171875 " data-index="2"></path>
<path style="fill-rule: evenodd; fill: rgb(116, 77, 46); fill-opacity: 1; opacity: 1;" d="M 15.9375 5.171875 C 18.699219 5.34375 21.476562 5.449219 24.269531 5.488281 C 24.519531 5.636719 24.726562 5.8125 24.894531 6.015625 C 24.605469 6.257812 24.640625 6.46875 25 6.648438 C 25.140625 6.929688 25.140625 7.214844 25 7.496094 C 24.875 7.164062 24.699219 6.882812 24.480469 6.648438 C 21.667969 6.40625 18.820312 6.371094 15.9375 6.542969 C 15.78125 6.6875 15.710938 6.863281 15.730469 7.070312 C 15.242188 8.058594 14.757812 9.042969 14.269531 10.027344 C 14.269531 9.707031 14.128906 9.460938 13.855469 9.289062 C 13.589844 9.3125 13.382812 9.277344 13.230469 9.183594 C 13.484375 7.589844 14.25 6.324219 15.519531 5.382812 C 15.660156 5.3125 15.796875 5.242188 15.9375 5.171875 Z M 15.9375 5.171875 " data-index="3"></path>
<path style=" stroke:none;fill-rule:evenodd;fill:rgb(96.470588%,84.313726%,70.588237%);fill-opacity:1;" d="M 24.480469 6.648438 C 24.480469 6.71875 24.480469 6.789062 24.480469 6.859375 C 21.542969 6.519531 18.625 6.589844 15.730469 7.070312 C 15.710938 6.863281 15.78125 6.6875 15.9375 6.542969 C 18.820312 6.371094 21.667969 6.40625 24.480469 6.648438 Z M 24.480469 6.648438 " data-index="4"></path>
<path style="fill-rule: evenodd; fill: rgb(252, 238, 203); fill-opacity: 1; opacity: 1;" d="M 24.480469 6.859375 C 24.9375 7.96875 25.355469 9.097656 25.730469 10.238281 C 25.167969 9.996094 25.027344 10.175781 25.3125 10.765625 C 25 10.941406 24.757812 11.1875 24.582031 11.503906 C 24.304688 11.355469 24.027344 11.425781 23.75 11.714844 C 23.753906 12.054688 23.789062 12.40625 23.855469 12.773438 C 23.421875 12.671875 23.003906 12.53125 22.605469 12.351562 C 21.867188 12.023438 21.070312 11.882812 20.207031 11.929688 C 19.578125 11.929688 18.988281 12 18.4375 12.140625 C 18.230469 12.140625 18.019531 12.140625 17.8125 12.140625 C 16.839844 11.746094 15.867188 11.183594 14.894531 10.449219 C 14.421875 10.953125 13.832031 11.234375 13.125 11.292969 C 10.878906 10.796875 8.757812 11.078125 6.769531 12.140625 C 6.742188 11.984375 6.777344 11.84375 6.875 11.714844 C 7.289062 11.453125 7.667969 11.171875 8.019531 10.871094 C 10.105469 10.730469 12.1875 10.589844 14.269531 10.449219 C 14.269531 10.308594 14.269531 10.167969 14.269531 10.027344 C 14.757812 9.042969 15.242188 8.058594 15.730469 7.070312 C 18.625 6.589844 21.542969 6.519531 24.480469 6.859375 Z M 24.480469 6.859375 " data-index="5"></path>
<path style=" stroke:none;fill-rule:evenodd;fill:rgb(57.647061%,47.450981%,37.254903%);fill-opacity:1;" d="M 25.105469 5.171875 C 25.496094 5.128906 25.808594 5.269531 26.042969 5.59375 C 26.539062 6.675781 26.921875 7.800781 27.1875 8.972656 C 27.035156 9.058594 26.933594 9.199219 26.875 9.394531 C 26.597656 8.9375 26.285156 8.515625 25.9375 8.128906 C 26.1875 8.027344 26.324219 7.816406 26.355469 7.496094 C 25.882812 6.898438 25.46875 6.125 25.105469 5.171875 Z M 25.105469 5.171875 " data-index="6"></path>
<path style="fill-rule: evenodd; fill: rgb(128, 92, 59); fill-opacity: 1; opacity: 1;" d="M 24.894531 6.015625 C 25.160156 6.753906 25.503906 7.460938 25.9375 8.128906 C 26.285156 8.515625 26.597656 8.9375 26.875 9.394531 C 26.933594 9.199219 27.035156 9.058594 27.1875 8.972656 C 28.824219 8.902344 30.421875 8.972656 31.980469 9.183594 C 30.730469 9.183594 29.480469 9.183594 28.230469 9.183594 C 28.230469 9.394531 28.230469 9.605469 28.230469 9.816406 C 27.75 9.871094 27.300781 9.800781 26.875 9.605469 C 26.808594 9.867188 26.914062 10.078125 27.1875 10.238281 C 29.136719 10.398438 31.078125 10.539062 33.019531 10.660156 C 33.175781 11.050781 33.382812 11.40625 33.644531 11.714844 C 33.207031 11.519531 32.789062 11.273438 32.394531 10.976562 C 30.128906 10.832031 27.90625 10.585938 25.730469 10.238281 C 25.355469 9.097656 24.9375 7.96875 24.480469 6.859375 C 24.480469 6.789062 24.480469 6.71875 24.480469 6.648438 C 24.699219 6.882812 24.875 7.164062 25 7.496094 C 25.140625 7.214844 25.140625 6.929688 25 6.648438 C 24.640625 6.46875 24.605469 6.257812 24.894531 6.015625 Z M 24.894531 6.015625 " data-index="7"></path>
<path style=" stroke:none;fill-rule:evenodd;fill:rgb(43.137255%,30.980393%,19.607843%);fill-opacity:1;" d="M 31.980469 9.183594 C 32.636719 9.480469 33.261719 9.832031 33.855469 10.238281 C 33.667969 10.472656 33.492188 10.472656 33.332031 10.238281 C 33.183594 10.355469 33.078125 10.496094 33.019531 10.660156 C 31.078125 10.539062 29.136719 10.398438 27.1875 10.238281 C 26.914062 10.078125 26.808594 9.867188 26.875 9.605469 C 27.300781 9.800781 27.75 9.871094 28.230469 9.816406 C 28.230469 9.605469 28.230469 9.394531 28.230469 9.183594 C 29.480469 9.183594 30.730469 9.183594 31.980469 9.183594 Z M 31.980469 9.183594 " data-index="8"></path>
<path style=" stroke:none;fill-rule:evenodd;fill:rgb(45.882353%,30.19608%,18.039216%);fill-opacity:1;" d="M 14.269531 10.449219 C 12.1875 10.589844 10.105469 10.730469 8.019531 10.871094 C 7.742188 10.871094 7.464844 10.871094 7.1875 10.871094 C 7.277344 10.496094 7.519531 10.285156 7.917969 10.238281 C 9.355469 9.648438 10.847656 9.472656 12.394531 9.710938 C 12.933594 10.1875 13.558594 10.433594 14.269531 10.449219 Z M 14.269531 10.449219 " data-index="9"></path>
<path style=" stroke:none;fill-rule:evenodd;fill:rgb(41.176471%,28.235295%,20.392157%);fill-opacity:1;" d="M 13.230469 9.183594 C 13.382812 9.277344 13.589844 9.3125 13.855469 9.289062 C 14.128906 9.460938 14.269531 9.707031 14.269531 10.027344 C 14.269531 10.167969 14.269531 10.308594 14.269531 10.449219 C 13.558594 10.433594 12.933594 10.1875 12.394531 9.710938 C 10.847656 9.472656 9.355469 9.648438 7.917969 10.238281 C 7.519531 10.285156 7.277344 10.496094 7.1875 10.871094 C 6.769531 11.050781 6.492188 11.367188 6.355469 11.820312 C 6.015625 11.925781 5.667969 11.960938 5.3125 11.929688 C 5.3125 11.785156 5.3125 11.644531 5.3125 11.503906 C 6.121094 10.460938 7.164062 9.722656 8.4375 9.289062 C 10.035156 9.183594 11.628906 9.148438 13.230469 9.183594 Z M 13.230469 9.183594 " data-index="10"></path>
<path style="fill-rule: evenodd; fill: rgb(252, 242, 215); fill-opacity: 1; opacity: 1;" d="M 25.730469 10.238281 C 27.90625 10.585938 30.128906 10.832031 32.394531 10.976562 C 32.789062 11.273438 33.207031 11.519531 33.644531 11.714844 C 33.714844 11.855469 33.785156 12 33.855469 12.140625 C 33.855469 12.421875 33.855469 12.703125 33.855469 12.984375 C 33.855469 17.980469 33.855469 22.976562 33.855469 27.972656 C 33.785156 27.972656 33.714844 27.972656 33.644531 27.972656 C 33.644531 27.832031 33.644531 27.691406 33.644531 27.550781 C 33.644531 25.226562 33.644531 22.90625 33.644531 20.582031 C 33.699219 17.832031 33.628906 15.089844 33.4375 12.351562 C 32.820312 12.175781 32.195312 12.140625 31.5625 12.246094 C 31.769531 12.316406 31.980469 12.386719 32.1875 12.457031 C 31.996094 12.539062 31.855469 12.679688 31.769531 12.878906 C 32.09375 12.863281 32.371094 13.074219 32.605469 13.511719 C 32.328125 13.792969 32.328125 14.074219 32.605469 14.355469 C 32.003906 15.253906 31.484375 16.207031 31.042969 17.207031 C 30.972656 17.136719 30.902344 17.066406 30.832031 16.996094 C 30.378906 17.398438 29.855469 17.433594 29.269531 17.101562 C 29.480469 17.03125 29.6875 16.960938 29.894531 16.890625 C 29.171875 16.214844 28.441406 15.6875 27.707031 15.304688 C 27.570312 15.792969 27.464844 16.285156 27.394531 16.785156 C 26.789062 15.675781 26.027344 14.691406 25.105469 13.828125 C 24.6875 13.476562 24.269531 13.125 23.855469 12.773438 C 23.789062 12.40625 23.753906 12.054688 23.75 11.714844 C 24.027344 11.425781 24.304688 11.355469 24.582031 11.503906 C 24.757812 11.1875 25 10.941406 25.3125 10.765625 C 25.027344 10.175781 25.167969 9.996094 25.730469 10.238281 Z M 25.730469 10.238281 " data-index="11"></path>
<path style=" stroke:none;fill-rule:evenodd;fill:rgb(99.607843%,96.470588%,85.09804%);fill-opacity:1;" d="M 17.8125 12.140625 C 17.1875 12.417969 16.5625 12.699219 15.9375 12.984375 C 15.71875 12.710938 15.476562 12.710938 15.207031 12.984375 C 15 12.84375 14.792969 12.703125 14.582031 12.5625 C 13.507812 13.511719 12.5 14.53125 11.5625 15.621094 C 11.632812 15.691406 11.703125 15.761719 11.769531 15.832031 C 11.355469 16.113281 10.9375 16.394531 10.519531 16.679688 C 10.589844 16.75 10.660156 16.820312 10.730469 16.890625 C 10.386719 17.183594 10.074219 17.5 9.792969 17.839844 C 9.75 17.402344 9.648438 16.976562 9.480469 16.570312 C 9.21875 16.6875 8.976562 16.828125 8.75 16.996094 C 8.652344 16.691406 8.480469 16.445312 8.230469 16.253906 C 8.136719 14.894531 8.136719 13.558594 8.230469 12.246094 C 7.695312 11.84375 7.207031 11.914062 6.769531 12.457031 C 6.566406 15.570312 6.496094 18.703125 6.5625 21.851562 C 6.5625 23.539062 6.5625 25.226562 6.5625 26.917969 C 6.5625 27.410156 6.5625 27.902344 6.5625 28.394531 C 6.355469 23.222656 6.285156 18.015625 6.355469 12.773438 C 6.339844 12.449219 6.476562 12.238281 6.769531 12.140625 C 8.757812 11.078125 10.878906 10.796875 13.125 11.292969 C 13.832031 11.234375 14.421875 10.953125 14.894531 10.449219 C 15.867188 11.183594 16.839844 11.746094 17.8125 12.140625 Z M 17.8125 12.140625 " data-index="12"></path>
<path style=" stroke:none;fill-rule:evenodd;fill:rgb(37.254903%,27.450982%,20%);fill-opacity:1;" d="M 33.855469 10.238281 C 34.597656 10.832031 35.085938 11.605469 35.3125 12.5625 C 35.042969 12.285156 34.761719 12.285156 34.480469 12.5625 C 34.320312 12.328125 34.113281 12.1875 33.855469 12.140625 C 33.785156 12 33.714844 11.855469 33.644531 11.714844 C 33.382812 11.40625 33.175781 11.050781 33.019531 10.660156 C 33.078125 10.496094 33.183594 10.355469 33.332031 10.238281 C 33.492188 10.472656 33.667969 10.472656 33.855469 10.238281 Z M 33.855469 10.238281 " data-index="13"></path>
<path style=" stroke:none;fill-rule:evenodd;fill:rgb(99.607843%,98.823529%,88.627452%);fill-opacity:1;" d="M 15.9375 12.984375 C 14.730469 13.855469 13.828125 14.980469 13.230469 16.359375 C 12.980469 16.691406 12.773438 17.046875 12.605469 17.417969 C 12.539062 17.15625 12.433594 17.15625 12.292969 17.417969 C 12.273438 17.082031 12.238281 16.800781 12.1875 16.570312 C 11.28125 17.070312 10.796875 17.84375 10.730469 18.894531 C 10.519531 18.894531 10.3125 18.894531 10.105469 18.894531 C 10.183594 19.425781 10.007812 19.847656 9.582031 20.160156 C 8.890625 19.390625 8.199219 18.617188 7.5 17.839844 C 7.292969 18.121094 7.082031 18.121094 6.875 17.839844 C 6.839844 19.214844 6.734375 20.550781 6.5625 21.851562 C 6.496094 18.703125 6.566406 15.570312 6.769531 12.457031 C 7.207031 11.914062 7.695312 11.84375 8.230469 12.246094 C 8.136719 13.558594 8.136719 14.894531 8.230469 16.253906 C 8.480469 16.445312 8.652344 16.691406 8.75 16.996094 C 8.976562 16.828125 9.21875 16.6875 9.480469 16.570312 C 9.648438 16.976562 9.75 17.402344 9.792969 17.839844 C 10.074219 17.5 10.386719 17.183594 10.730469 16.890625 C 10.660156 16.820312 10.589844 16.75 10.519531 16.679688 C 10.9375 16.394531 11.355469 16.113281 11.769531 15.832031 C 11.703125 15.761719 11.632812 15.691406 11.5625 15.621094 C 12.5 14.53125 13.507812 13.511719 14.582031 12.5625 C 14.792969 12.703125 15 12.84375 15.207031 12.984375 C 15.476562 12.710938 15.71875 12.710938 15.9375 12.984375 Z M 15.9375 12.984375 " data-index="14"></path>
<path style=" stroke:none;fill-rule:evenodd;fill:rgb(67.450982%,60.392159%,46.666667%);fill-opacity:1;" d="M 18.4375 12.140625 C 18.988281 12 19.578125 11.929688 20.207031 11.929688 C 21.070312 11.882812 21.867188 12.023438 22.605469 12.351562 C 22.464844 12.351562 22.328125 12.351562 22.1875 12.351562 C 20.949219 12.15625 19.699219 12.085938 18.4375 12.140625 Z M 18.4375 12.140625 " data-index="15"></path>
<path style=" stroke:none;fill-rule:evenodd;fill:rgb(37.254903%,28.235295%,21.960784%);fill-opacity:1;" d="M 18.4375 12.140625 C 19.699219 12.085938 20.949219 12.15625 22.1875 12.351562 C 20.765625 12.59375 19.308594 12.628906 17.8125 12.457031 C 18.070312 12.40625 18.277344 12.300781 18.4375 12.140625 Z M 18.4375 12.140625 " data-index="16"></path>
<path style="fill-rule: evenodd; fill: rgb(125, 100, 77); fill-opacity: 1; opacity: 1;" d="M 17.8125 12.140625 C 18.019531 12.140625 18.230469 12.140625 18.4375 12.140625 C 18.277344 12.300781 18.070312 12.40625 17.8125 12.457031 C 19.308594 12.628906 20.765625 12.59375 22.1875 12.351562 C 22.328125 12.351562 22.464844 12.351562 22.605469 12.351562 C 23.003906 12.53125 23.421875 12.671875 23.855469 12.773438 C 24.269531 13.125 24.6875 13.476562 25.105469 13.828125 C 25.132812 15.144531 24.71875 15.355469 23.855469 14.460938 C 23.730469 14.503906 23.628906 14.574219 23.542969 14.671875 C 23.183594 14.46875 22.800781 14.328125 22.394531 14.25 C 21.003906 14.214844 19.617188 14.25 18.230469 14.355469 C 18.457031 14.519531 18.457031 14.695312 18.230469 14.882812 C 17.8125 15.09375 17.394531 15.304688 16.980469 15.515625 C 16.679688 15.5 16.402344 15.570312 16.144531 15.726562 C 15.71875 16.230469 15.300781 16.722656 14.894531 17.207031 C 14.894531 16.996094 14.894531 16.785156 14.894531 16.570312 C 15.257812 16.464844 15.328125 16.289062 15.105469 16.042969 C 14.753906 16.039062 14.441406 16.003906 14.167969 15.9375 C 14.027344 16.21875 13.820312 16.429688 13.542969 16.570312 C 13.480469 17.089844 13.34375 17.582031 13.125 18.050781 C 13.019531 17.945312 12.917969 17.839844 12.8125 17.734375 C 13.128906 17.332031 13.265625 16.875 13.230469 16.359375 C 13.828125 14.980469 14.730469 13.855469 15.9375 12.984375 C 16.5625 12.699219 17.1875 12.417969 17.8125 12.140625 Z M 17.8125 12.140625 " data-index="17"></path>
<path style=" stroke:none;fill-rule:evenodd;fill:rgb(53.333336%,38.039216%,24.313726%);fill-opacity:1;" d="M 7.1875 10.871094 C 7.464844 10.871094 7.742188 10.871094 8.019531 10.871094 C 7.667969 11.171875 7.289062 11.453125 6.875 11.714844 C 6.777344 11.84375 6.742188 11.984375 6.769531 12.140625 C 6.476562 12.238281 6.339844 12.449219 6.355469 12.773438 C 6.148438 14 6.078125 15.265625 6.144531 16.570312 C 5.828125 16.570312 5.585938 16.429688 5.417969 16.148438 C 5.347656 16.5 5.277344 16.855469 5.207031 17.207031 C 5.101562 15.445312 5.136719 13.683594 5.3125 11.929688 C 5.667969 11.960938 6.015625 11.925781 6.355469 11.820312 C 6.492188 11.367188 6.769531 11.050781 7.1875 10.871094 Z M 7.1875 10.871094 " data-index="18"></path>
<path style="fill-rule: evenodd; fill: rgb(147, 106, 71); fill-opacity: 1; opacity: 1;" d="M 22.394531 14.25 C 22.957031 14.621094 23.546875 14.972656 24.167969 15.304688 C 24.839844 16.019531 25.152344 16.863281 25.105469 17.839844 C 24.304688 16.394531 23.125 15.410156 21.5625 14.882812 C 21.191406 14.566406 20.738281 14.425781 20.207031 14.460938 C 19.851562 14.464844 19.539062 14.535156 19.269531 14.671875 C 18.914062 14.699219 18.566406 14.769531 18.230469 14.882812 C 18.457031 14.695312 18.457031 14.519531 18.230469 14.355469 C 19.617188 14.25 21.003906 14.214844 22.394531 14.25 Z M 22.394531 14.25 " data-index="19"></path>
<path style="fill-rule: evenodd; fill: rgb(254, 249, 227); fill-opacity: 1; opacity: 1;" d="M 33.644531 20.582031 C 33.507812 19.628906 33.367188 18.644531 33.230469 17.628906 C 33.054688 17.417969 32.882812 17.207031 32.707031 16.996094 C 32.570312 17.417969 32.429688 17.839844 32.292969 18.261719 C 32.222656 17.980469 32.152344 17.699219 32.082031 17.417969 C 31.949219 18.675781 31.636719 19.804688 31.144531 20.792969 C 30.585938 20.6875 30.132812 20.40625 29.792969 19.949219 C 29.722656 20.019531 29.652344 20.089844 29.582031 20.160156 C 29.414062 19.238281 28.894531 18.746094 28.019531 18.683594 C 28.085938 19.5 28.015625 20.273438 27.8125 21.003906 C 27.847656 20.019531 27.8125 19.03125 27.707031 18.050781 C 27.664062 17.722656 27.558594 17.441406 27.394531 17.207031 C 27.394531 17.066406 27.394531 16.925781 27.394531 16.785156 C 27.464844 16.285156 27.570312 15.792969 27.707031 15.304688 C 28.441406 15.6875 29.171875 16.214844 29.894531 16.890625 C 29.6875 16.960938 29.480469 17.03125 29.269531 17.101562 C 29.855469 17.433594 30.378906 17.398438 30.832031 16.996094 C 30.902344 17.066406 30.972656 17.136719 31.042969 17.207031 C 31.484375 16.207031 32.003906 15.253906 32.605469 14.355469 C 32.328125 14.074219 32.328125 13.792969 32.605469 13.511719 C 32.371094 13.074219 32.09375 12.863281 31.769531 12.878906 C 31.855469 12.679688 31.996094 12.539062 32.1875 12.457031 C 31.980469 12.386719 31.769531 12.316406 31.5625 12.246094 C 32.195312 12.140625 32.820312 12.175781 33.4375 12.351562 C 33.628906 15.089844 33.699219 17.832031 33.644531 20.582031 Z M 33.644531 20.582031 " data-index="20"></path>
<path style=" stroke:none;fill-rule:evenodd;fill:rgb(84.313726%,69.803923%,54.901963%);fill-opacity:1;" d="M 19.269531 14.671875 C 19.539062 14.535156 19.851562 14.464844 20.207031 14.460938 C 20.738281 14.425781 21.191406 14.566406 21.5625 14.882812 C 20.808594 14.726562 20.042969 14.65625 19.269531 14.671875 Z M 19.269531 14.671875 " data-index="21"></path>

<path style="fill-rule: evenodd; fill: rgb(139, 114, 84); fill-opacity: 1; opacity: 1;" d="M 25.105469 13.828125 C 26.027344 14.691406 26.789062 15.675781 27.394531 16.785156 C 27.394531 16.925781 27.394531 17.066406 27.394531 17.207031 C 27.492188 18.46875 27.5625 19.738281 27.605469 21.003906 C 27.664062 21.410156 27.59375 21.761719 27.394531 22.0625 C 27.476562 21.546875 27.335938 21.40625 26.980469 21.640625 C 26.859375 20.40625 26.617188 19.28125 26.25 18.261719 C 26.167969 19.113281 26.0625 19.957031 25.9375 20.792969 C 25.738281 20.890625 25.5625 21.03125 25.417969 21.214844 C 25.378906 20.261719 25.277344 19.347656 25.105469 18.472656 C 25.105469 18.261719 25.105469 18.050781 25.105469 17.839844 C 25.152344 16.863281 24.839844 16.019531 24.167969 15.304688 C 23.546875 14.972656 22.957031 14.621094 22.394531 14.25 C 22.800781 14.328125 23.183594 14.46875 23.542969 14.671875 C 23.628906 14.574219 23.730469 14.503906 23.855469 14.460938 C 24.71875 15.355469 25.132812 15.144531 25.105469 13.828125 Z M 25.105469 13.828125 " data-index="23"></path>
<path style="fill-rule: evenodd; fill: rgb(254, 253, 237); fill-opacity: 1; opacity: 1;" d="M 12.605469 17.417969 C 12.605469 18.753906 12.605469 20.089844 12.605469 21.429688 C 12.433594 20.339844 12.328125 19.214844 12.292969 18.050781 C 12.042969 19.210938 11.730469 20.335938 11.355469 21.429688 C 11.402344 22.285156 11.539062 23.164062 11.769531 24.066406 C 11.621094 24.351562 11.691406 24.632812 11.980469 24.910156 C 11.910156 24.980469 11.839844 25.050781 11.769531 25.121094 C 12.15625 25.265625 12.503906 25.476562 12.8125 25.753906 C 12.570312 25.949219 12.605469 26.125 12.917969 26.285156 C 12.984375 26.214844 13.054688 26.140625 13.125 26.070312 C 13.632812 26.636719 13.738281 27.269531 13.4375 27.972656 C 12.886719 28.257812 12.332031 28.1875 11.769531 27.761719 C 11.464844 28.15625 11.082031 28.15625 10.625 27.761719 C 10.277344 28.042969 9.929688 28.324219 9.582031 28.605469 C 8.785156 27.710938 8.128906 26.796875 7.605469 25.859375 C 7.347656 26.019531 7.070312 26.089844 6.769531 26.070312 C 6.828125 26.410156 6.757812 26.691406 6.5625 26.917969 C 6.5625 25.226562 6.5625 23.539062 6.5625 21.851562 C 6.734375 20.550781 6.839844 19.214844 6.875 17.839844 C 7.082031 18.121094 7.292969 18.121094 7.5 17.839844 C 8.199219 18.617188 8.890625 19.390625 9.582031 20.160156 C 10.007812 19.847656 10.183594 19.425781 10.105469 18.894531 C 10.3125 18.894531 10.519531 18.894531 10.730469 18.894531 C 10.796875 17.84375 11.28125 17.070312 12.1875 16.570312 C 12.238281 16.800781 12.273438 17.082031 12.292969 17.417969 C 12.433594 17.15625 12.539062 17.15625 12.605469 17.417969 Z M 12.605469 17.417969 " data-index="24"></path>
<path style=" stroke:none;fill-rule:evenodd;fill:rgb(41.960785%,29.803923%,18.039216%);fill-opacity:1;" d="M 33.855469 12.140625 C 34.113281 12.1875 34.320312 12.328125 34.480469 12.5625 C 34.761719 12.285156 35.042969 12.285156 35.3125 12.5625 C 35.3125 12.632812 35.3125 12.703125 35.3125 12.773438 C 35.347656 16.925781 35.3125 21.078125 35.207031 25.226562 C 34.886719 26.597656 34.675781 26.597656 34.582031 25.226562 C 34.515625 25.507812 34.445312 25.789062 34.375 26.070312 C 34.304688 22.414062 34.234375 18.753906 34.167969 15.09375 C 34.128906 14.351562 34.023438 13.648438 33.855469 12.984375 C 33.855469 12.703125 33.855469 12.421875 33.855469 12.140625 Z M 33.855469 12.140625 " data-index="25"></path>
<path style="fill-rule: evenodd; fill: rgb(153, 124, 94); fill-opacity: 1; opacity: 1;" d="M 14.894531 16.570312 C 14.894531 16.785156 14.894531 16.996094 14.894531 17.207031 C 14.179688 18.609375 14.074219 20.085938 14.582031 21.640625 C 14.625 21.242188 14.730469 20.890625 14.894531 20.582031 C 14.941406 21.164062 14.875 21.726562 14.6875 22.273438 C 15.183594 22.875 15.460938 23.578125 15.519531 24.382812 C 15.09375 24.503906 14.746094 24.714844 14.480469 25.015625 C 14.207031 24.671875 13.929688 24.316406 13.644531 23.960938 C 13.890625 24.007812 14.097656 23.9375 14.269531 23.75 C 13.339844 21.730469 13.164062 19.617188 13.75 17.417969 C 13.980469 17 14.292969 16.644531 14.6875 16.359375 C 14.8125 16.386719 14.882812 16.457031 14.894531 16.570312 Z M 14.894531 16.570312 " data-index="26"></path>
<path style=" stroke:none;fill-rule:evenodd;fill:rgb(55.29412%,41.960785%,29.411766%);fill-opacity:1;" d="M 16.980469 15.515625 C 16 16.441406 15.375 17.566406 15.105469 18.894531 C 14.902344 19.410156 14.832031 19.972656 14.894531 20.582031 C 14.730469 20.890625 14.625 21.242188 14.582031 21.640625 C 14.074219 20.085938 14.179688 18.609375 14.894531 17.207031 C 15.300781 16.722656 15.71875 16.230469 16.144531 15.726562 C 16.402344 15.570312 16.679688 15.5 16.980469 15.515625 Z M 16.980469 15.515625 " data-index="27"></path>
<path style="fill-rule: evenodd; fill: rgb(253, 252, 242); fill-opacity: 1; opacity: 1;" d="M 12.605469 21.429688 C 12.871094 22.304688 13.21875 23.152344 13.644531 23.960938 C 13.929688 24.316406 14.207031 24.671875 14.480469 25.015625 C 16.285156 27.140625 18.578125 27.949219 21.355469 27.445312 C 22.199219 27.21875 23.03125 26.972656 23.855469 26.707031 C 24.554688 27.054688 24.96875 26.84375 25.105469 26.070312 C 25.511719 25.9375 25.894531 25.9375 26.25 26.070312 C 26.300781 25.835938 26.40625 25.625 26.5625 25.4375 C 26.867188 25.96875 26.761719 26.460938 26.25 26.917969 C 26.109375 27.339844 26.109375 27.761719 26.25 28.183594 C 26.535156 28.023438 26.777344 28.128906 26.980469 28.5 C 28.1875 28.851562 29.335938 28.816406 30.417969 28.394531 C 30.980469 27.925781 31.433594 27.363281 31.769531 26.707031 C 32.027344 26.523438 32.304688 26.382812 32.605469 26.285156 C 33.035156 26.648438 33.382812 27.070312 33.644531 27.550781 C 33.644531 27.691406 33.644531 27.832031 33.644531 27.972656 C 33.53125 28.828125 33.113281 29.496094 32.394531 29.976562 C 24.339844 30.117188 16.285156 30.117188 8.230469 29.976562 C 7.710938 29.625 7.222656 29.238281 6.769531 28.816406 C 6.703125 28.675781 6.632812 28.535156 6.5625 28.394531 C 6.5625 27.902344 6.5625 27.410156 6.5625 26.917969 C 6.757812 26.691406 6.828125 26.410156 6.769531 26.070312 C 7.070312 26.089844 7.347656 26.019531 7.605469 25.859375 C 8.128906 26.796875 8.785156 27.710938 9.582031 28.605469 C 9.929688 28.324219 10.277344 28.042969 10.625 27.761719 C 11.082031 28.15625 11.464844 28.15625 11.769531 27.761719 C 12.332031 28.1875 12.886719 28.257812 13.4375 27.972656 C 13.738281 27.269531 13.632812 26.636719 13.125 26.070312 C 13.054688 26.140625 12.984375 26.214844 12.917969 26.285156 C 12.605469 26.125 12.570312 25.949219 12.8125 25.753906 C 12.503906 25.476562 12.15625 25.265625 11.769531 25.121094 C 11.839844 25.050781 11.910156 24.980469 11.980469 24.910156 C 11.691406 24.632812 11.621094 24.351562 11.769531 24.066406 C 11.539062 23.164062 11.402344 22.285156 11.355469 21.429688 C 11.730469 20.335938 12.042969 19.210938 12.292969 18.050781 C 12.328125 19.214844 12.433594 20.339844 12.605469 21.429688 Z M 12.605469 21.429688 " data-index="28"></path>
<path style=" stroke:none;fill-rule:evenodd;fill:rgb(72.941178%,61.176473%,46.666667%);fill-opacity:1;" d="M 27.394531 17.207031 C 27.558594 17.441406 27.664062 17.722656 27.707031 18.050781 C 27.8125 19.03125 27.847656 20.019531 27.8125 21.003906 C 27.742188 21.003906 27.671875 21.003906 27.605469 21.003906 C 27.5625 19.738281 27.492188 18.46875 27.394531 17.207031 Z M 27.394531 17.207031 " data-index="29"></path>
<path style="fill-rule: evenodd; fill: rgb(254, 253, 238); fill-opacity: 1; opacity: 1;" d="M 33.644531 20.582031 C 33.644531 22.90625 33.644531 25.226562 33.644531 27.550781 C 33.382812 27.070312 33.035156 26.648438 32.605469 26.285156 C 32.304688 26.382812 32.027344 26.523438 31.769531 26.707031 C 31.433594 27.363281 30.980469 27.925781 30.417969 28.394531 C 29.335938 28.816406 28.1875 28.851562 26.980469 28.5 C 26.777344 28.128906 26.535156 28.023438 26.25 28.183594 C 26.109375 27.761719 26.109375 27.339844 26.25 26.917969 C 26.761719 26.460938 26.867188 25.96875 26.5625 25.4375 C 26.40625 25.625 26.300781 25.835938 26.25 26.070312 C 25.894531 25.9375 25.511719 25.9375 25.105469 26.070312 C 24.96875 26.84375 24.554688 27.054688 23.855469 26.707031 C 24.601562 26.300781 25.226562 25.738281 25.730469 25.015625 C 26.5 24.15625 27.054688 23.171875 27.394531 22.0625 C 27.59375 21.761719 27.664062 21.410156 27.605469 21.003906 C 27.671875 21.003906 27.742188 21.003906 27.8125 21.003906 C 28.015625 20.273438 28.085938 19.5 28.019531 18.683594 C 28.894531 18.746094 29.414062 19.238281 29.582031 20.160156 C 29.652344 20.089844 29.722656 20.019531 29.792969 19.949219 C 30.132812 20.40625 30.585938 20.6875 31.144531 20.792969 C 31.636719 19.804688 31.949219 18.675781 32.082031 17.417969 C 32.152344 17.699219 32.222656 17.980469 32.292969 18.261719 C 32.429688 17.839844 32.570312 17.417969 32.707031 16.996094 C 32.882812 17.207031 33.054688 17.417969 33.230469 17.628906 C 33.367188 18.644531 33.507812 19.628906 33.644531 20.582031 Z M 33.644531 20.582031 " data-index="30"></path>
<path style=" stroke:none;fill-rule:evenodd;fill:rgb(53.725493%,42.352942%,30.19608%);fill-opacity:1;" d="M 14.894531 16.570312 C 14.882812 16.457031 14.8125 16.386719 14.6875 16.359375 C 14.292969 16.644531 13.980469 17 13.75 17.417969 C 13.164062 19.617188 13.339844 21.730469 14.269531 23.75 C 14.097656 23.9375 13.890625 24.007812 13.644531 23.960938 C 13.21875 23.152344 12.871094 22.304688 12.605469 21.429688 C 12.605469 20.089844 12.605469 18.753906 12.605469 17.417969 C 12.773438 17.046875 12.980469 16.691406 13.230469 16.359375 C 13.265625 16.875 13.128906 17.332031 12.8125 17.734375 C 12.917969 17.839844 13.019531 17.945312 13.125 18.050781 C 13.34375 17.582031 13.480469 17.089844 13.542969 16.570312 C 13.820312 16.429688 14.027344 16.21875 14.167969 15.9375 C 14.441406 16.003906 14.753906 16.039062 15.105469 16.042969 C 15.328125 16.289062 15.257812 16.464844 14.894531 16.570312 Z M 14.894531 16.570312 " data-index="31"></path>
<path style="fill-rule: evenodd; fill: rgb(154, 125, 93); fill-opacity: 1; opacity: 1;" d="M 27.394531 22.0625 C 27.054688 23.171875 26.5 24.15625 25.730469 25.015625 C 25.386719 25.0625 25.074219 24.992188 24.792969 24.804688 C 24.589844 25.054688 24.484375 25.335938 24.480469 25.648438 C 23.441406 26.546875 23.09375 26.40625 23.4375 25.226562 C 23.65625 25.257812 23.863281 25.222656 24.0625 25.121094 C 24.035156 24.855469 24.035156 24.609375 24.0625 24.382812 C 21.710938 25.808594 21.605469 25.597656 23.75 23.75 C 23.820312 23.890625 23.890625 24.03125 23.957031 24.171875 C 24.539062 23.792969 24.992188 23.300781 25.3125 22.695312 C 25.203125 22.546875 25.0625 22.441406 24.894531 22.378906 C 25.078125 22.089844 25.148438 21.773438 25.105469 21.429688 C 25.621094 21.515625 25.898438 21.304688 25.9375 20.792969 C 26.0625 19.957031 26.167969 19.113281 26.25 18.261719 C 26.617188 19.28125 26.859375 20.40625 26.980469 21.640625 C 27.335938 21.40625 27.476562 21.546875 27.394531 22.0625 Z M 27.394531 22.0625 " data-index="32"></path>
<path style=" stroke:none;fill-rule:evenodd;fill:rgb(59.215689%,45.882353%,33.333334%);fill-opacity:1;" d="M 5.3125 11.503906 C 5.3125 11.644531 5.3125 11.785156 5.3125 11.929688 C 5.136719 13.683594 5.101562 15.445312 5.207031 17.207031 C 5.277344 16.855469 5.347656 16.5 5.417969 16.148438 C 5.585938 16.429688 5.828125 16.570312 6.144531 16.570312 C 6.179688 19.667969 6.144531 22.765625 6.042969 25.859375 C 5.667969 26.320312 5.632812 26.8125 5.9375 27.339844 C 5.6875 27.433594 5.445312 27.503906 5.207031 27.550781 C 4.921875 22.347656 4.820312 17.140625 4.894531 11.929688 C 4.964844 11.714844 5.105469 11.574219 5.3125 11.503906 Z M 5.3125 11.503906 " data-index="33"></path>
<path style="fill-rule: evenodd; fill: rgb(165, 136, 100); fill-opacity: 1; opacity: 1;" d="M 25.105469 18.472656 C 25.277344 19.347656 25.378906 20.261719 25.417969 21.214844 C 25.5625 21.03125 25.738281 20.890625 25.9375 20.792969 C 25.898438 21.304688 25.621094 21.515625 25.105469 21.429688 C 25.148438 21.773438 25.078125 22.089844 24.894531 22.378906 C 25.0625 22.441406 25.203125 22.546875 25.3125 22.695312 C 24.992188 23.300781 24.539062 23.792969 23.957031 24.171875 C 23.890625 24.03125 23.820312 23.890625 23.75 23.75 C 21.605469 25.597656 21.710938 25.808594 24.0625 24.382812 C 24.035156 24.609375 24.035156 24.855469 24.0625 25.121094 C 23.863281 25.222656 23.65625 25.257812 23.4375 25.226562 C 23.09375 26.40625 23.441406 26.546875 24.480469 25.648438 C 24.484375 25.335938 24.589844 25.054688 24.792969 24.804688 C 25.074219 24.992188 25.386719 25.0625 25.730469 25.015625 C 25.226562 25.738281 24.601562 26.300781 23.855469 26.707031 C 23.03125 26.972656 22.199219 27.21875 21.355469 27.445312 C 18.578125 27.949219 16.285156 27.140625 14.480469 25.015625 C 14.746094 24.714844 15.09375 24.503906 15.519531 24.382812 C 15.460938 23.578125 15.183594 22.875 14.6875 22.273438 C 14.875 21.726562 14.941406 21.164062 14.894531 20.582031 C 14.832031 19.972656 14.902344 19.410156 15.105469 18.894531 C 14.871094 20.878906 15.496094 22.496094 16.980469 23.75 C 17.691406 24.652344 18.628906 25.003906 19.792969 24.804688 C 21.195312 24.90625 22.410156 24.484375 23.4375 23.539062 C 24.820312 22.164062 25.375 20.472656 25.105469 18.472656 Z M 25.105469 18.472656 " data-index="34"></path>

<path style=" stroke:none;fill-rule:evenodd;fill:rgb(58.823532%,47.843137%,35.686275%);fill-opacity:1;" d="M 35.3125 12.773438 C 35.554688 17.519531 35.589844 22.304688 35.417969 27.128906 C 35.355469 27.636719 35.253906 28.132812 35.105469 28.605469 C 34.777344 29.222656 34.289062 29.363281 33.644531 29.027344 C 33.8125 28.695312 33.882812 28.34375 33.855469 27.972656 C 33.855469 22.976562 33.855469 17.980469 33.855469 12.984375 C 34.023438 13.648438 34.128906 14.351562 34.167969 15.09375 C 34.234375 18.753906 34.304688 22.414062 34.375 26.070312 C 34.445312 25.789062 34.515625 25.507812 34.582031 25.226562 C 34.675781 26.597656 34.886719 26.597656 35.207031 25.226562 C 35.3125 21.078125 35.347656 16.925781 35.3125 12.773438 Z M 35.3125 12.773438 " data-index="36"></path>
<path style=" stroke:none;fill-rule:evenodd;fill:rgb(63.137257%,51.372552%,38.82353%);fill-opacity:1;" d="M 4.894531 11.929688 C 4.820312 17.140625 4.921875 22.347656 5.207031 27.550781 C 5.445312 27.503906 5.6875 27.433594 5.9375 27.339844 C 5.632812 26.8125 5.667969 26.320312 6.042969 25.859375 C 6.144531 22.765625 6.179688 19.667969 6.144531 16.570312 C 6.078125 15.265625 6.148438 14 6.355469 12.773438 C 6.285156 18.015625 6.355469 23.222656 6.5625 28.394531 C 6.632812 28.535156 6.703125 28.675781 6.769531 28.816406 C 6.804688 29.105469 6.769531 29.386719 6.667969 29.660156 C 6.519531 29.351562 6.277344 29.210938 5.9375 29.238281 C 5.988281 29.976562 5.8125 30.046875 5.417969 29.449219 C 5.339844 28.921875 5.164062 28.425781 4.894531 27.972656 C 4.6875 22.835938 4.617188 17.699219 4.6875 12.5625 C 4.636719 12.289062 4.707031 12.078125 4.894531 11.929688 Z M 4.894531 11.929688 " data-index="37"></path>
<path style="fill-rule: evenodd; fill: rgb(178, 152, 123); fill-opacity: 1; opacity: 1;" d="M 4.6875 12.5625 C 4.617188 17.699219 4.6875 22.835938 4.894531 27.972656 C 5.164062 28.425781 5.339844 28.921875 5.417969 29.449219 C 5.8125 30.046875 5.988281 29.976562 5.9375 29.238281 C 6.277344 29.210938 6.519531 29.351562 6.667969 29.660156 C 6.769531 29.386719 6.804688 29.105469 6.769531 28.816406 C 7.222656 29.238281 7.710938 29.625 8.230469 29.976562 C 16.285156 30.117188 24.339844 30.117188 32.394531 29.976562 C 33.113281 29.496094 33.53125 28.828125 33.644531 27.972656 C 33.714844 27.972656 33.785156 27.972656 33.855469 27.972656 C 33.882812 28.34375 33.8125 28.695312 33.644531 29.027344 C 34.289062 29.363281 34.777344 29.222656 35.105469 28.605469 C 35.105469 28.816406 35.105469 29.027344 35.105469 29.238281 C 34.757812 29.652344 34.410156 30.074219 34.0625 30.503906 C 33.230469 30.988281 32.503906 31.550781 31.875 32.195312 C 31.621094 32.03125 31.414062 31.820312 31.25 31.5625 C 31.042969 31.84375 30.832031 32.125 30.625 32.40625 C 29.90625 32.054688 29.386719 32.265625 29.0625 33.039062 C 28.90625 32.855469 28.800781 32.644531 28.75 32.40625 C 27.871094 32.542969 26.898438 32.613281 25.832031 32.617188 C 25.453125 32.328125 25.070312 32.257812 24.6875 32.40625 C 24.441406 31.953125 24.128906 31.953125 23.75 32.40625 C 23.265625 32.265625 22.777344 32.125 22.292969 31.984375 C 21.425781 32.101562 20.554688 32.171875 19.6875 32.195312 C 19.246094 32.199219 18.867188 32.058594 18.542969 31.773438 C 17.519531 31.886719 16.582031 32.167969 15.730469 32.617188 C 15.761719 32.394531 15.726562 32.183594 15.625 31.984375 C 15.285156 32.402344 14.867188 32.683594 14.375 32.828125 C 14.089844 32.753906 13.847656 32.613281 13.644531 32.40625 C 12.03125 32.394531 10.332031 32.464844 8.542969 32.617188 C 8.175781 32.246094 7.726562 32.105469 7.1875 32.195312 C 5.875 31.324219 5.007812 30.125 4.582031 28.605469 C 4.410156 23.222656 4.445312 17.875 4.6875 12.5625 Z M 4.6875 12.5625 " data-index="38"></path>
<path style="fill-rule: evenodd; fill: rgb(181, 155, 127); fill-opacity: 1; opacity: 1;" d="M 34.0625 30.503906 C 33.730469 31.261719 33.175781 31.824219 32.394531 32.195312 C 31.941406 32.691406 31.523438 33.21875 31.144531 33.777344 C 28.785156 33.917969 26.421875 33.917969 24.0625 33.777344 C 24.15625 33.457031 24.015625 33.210938 23.644531 33.039062 C 23.578125 33.179688 23.507812 33.320312 23.4375 33.460938 C 22.953125 33.320312 22.464844 33.179688 21.980469 33.039062 C 21.785156 33.28125 21.613281 33.28125 21.457031 33.039062 C 21.390625 33.179688 21.320312 33.320312 21.25 33.460938 C 20.832031 32.898438 20.417969 32.898438 20 33.460938 C 19.878906 32.90625 19.601562 32.765625 19.167969 33.039062 C 19.101562 32.867188 19 32.726562 18.855469 32.617188 C 18.390625 33.078125 17.867188 33.148438 17.292969 32.828125 C 17.039062 32.992188 16.828125 33.203125 16.667969 33.460938 C 14.222656 33.410156 11.757812 33.304688 9.269531 33.144531 C 8.734375 32.902344 8.175781 32.726562 7.605469 32.617188 C 7.394531 32.546875 7.257812 32.40625 7.1875 32.195312 C 7.726562 32.105469 8.175781 32.246094 8.542969 32.617188 C 10.332031 32.464844 12.03125 32.394531 13.644531 32.40625 C 13.847656 32.613281 14.089844 32.753906 14.375 32.828125 C 14.867188 32.683594 15.285156 32.402344 15.625 31.984375 C 15.726562 32.183594 15.761719 32.394531 15.730469 32.617188 C 16.582031 32.167969 17.519531 31.886719 18.542969 31.773438 C 18.867188 32.058594 19.246094 32.199219 19.6875 32.195312 C 20.554688 32.171875 21.425781 32.101562 22.292969 31.984375 C 22.777344 32.125 23.265625 32.265625 23.75 32.40625 C 24.128906 31.953125 24.441406 31.953125 24.6875 32.40625 C 25.070312 32.257812 25.453125 32.328125 25.832031 32.617188 C 26.898438 32.613281 27.871094 32.542969 28.75 32.40625 C 28.800781 32.644531 28.90625 32.855469 29.0625 33.039062 C 29.386719 32.265625 29.90625 32.054688 30.625 32.40625 C 30.832031 32.125 31.042969 31.84375 31.25 31.5625 C 31.414062 31.820312 31.621094 32.03125 31.875 32.195312 C 32.503906 31.550781 33.230469 30.988281 34.0625 30.503906 Z M 34.0625 30.503906 " data-index="39"></path>
<path style="fill-rule: evenodd; fill: rgb(185, 163, 141); fill-opacity: 1; opacity: 1;" d="M 35.105469 29.238281 C 34.597656 31.402344 33.417969 33.058594 31.5625 34.199219 C 24.269531 34.339844 16.980469 34.339844 9.6875 34.199219 C 8.894531 33.78125 8.203125 33.253906 7.605469 32.617188 C 8.175781 32.726562 8.734375 32.902344 9.269531 33.144531 C 11.757812 33.304688 14.222656 33.410156 16.667969 33.460938 C 16.828125 33.203125 17.039062 32.992188 17.292969 32.828125 C 17.867188 33.148438 18.390625 33.078125 18.855469 32.617188 C 19 32.726562 19.101562 32.867188 19.167969 33.039062 C 19.601562 32.765625 19.878906 32.90625 20 33.460938 C 20.417969 32.898438 20.832031 32.898438 21.25 33.460938 C 21.320312 33.320312 21.390625 33.179688 21.457031 33.039062 C 21.613281 33.28125 21.785156 33.28125 21.980469 33.039062 C 22.464844 33.179688 22.953125 33.320312 23.4375 33.460938 C 23.507812 33.320312 23.578125 33.179688 23.644531 33.039062 C 24.015625 33.210938 24.15625 33.457031 24.0625 33.777344 C 26.421875 33.917969 28.785156 33.917969 31.144531 33.777344 C 31.523438 33.21875 31.941406 32.691406 32.394531 32.195312 C 33.175781 31.824219 33.730469 31.261719 34.0625 30.503906 C 34.410156 30.074219 34.757812 29.652344 35.105469 29.238281 Z M 35.105469 29.238281 " data-index="40"></path>
</g>
</svg>
